<mxfile host="app.diagrams.net" agent="Mozilla/5.0 (Windows NT 10.0; Win64; x64) AppleWebKit/537.36 (KHTML, like Gecko) Chrome/130.0.0.0 Safari/537.36 Edg/130.0.0.0" version="24.8.0" pages="4">
  <diagram name="start page" id="gKl1hSPkP9tuDKRVHKfg">
    <mxGraphModel dx="1501" dy="786" grid="1" gridSize="10" guides="1" tooltips="1" connect="1" arrows="1" fold="1" page="1" pageScale="1" pageWidth="827" pageHeight="1169" background="none" math="0" shadow="1">
      <root>
        <mxCell id="0" />
        <mxCell id="1" parent="0" />
        <mxCell id="ChkhM-89AtLazQM2Gveq-3" value="" style="edgeStyle=orthogonalEdgeStyle;rounded=1;orthogonalLoop=1;jettySize=auto;html=1;labelBackgroundColor=none;fontColor=default;fontStyle=0;strokeColor=#09555B;" parent="1" source="ChkhM-89AtLazQM2Gveq-1" target="ChkhM-89AtLazQM2Gveq-2" edge="1">
          <mxGeometry relative="1" as="geometry" />
        </mxCell>
        <mxCell id="ChkhM-89AtLazQM2Gveq-1" value="&lt;font style=&quot;font-size: 10px;&quot;&gt;start&lt;/font&gt;" style="ellipse;whiteSpace=wrap;html=1;labelBackgroundColor=none;rounded=1;fontStyle=0;strokeColor=#D0CEE2;fillColor=#FAD9D5;fontColor=#1A1A1A;" parent="1" vertex="1">
          <mxGeometry x="120.87692307692309" y="20" width="145.84615384615387" height="100.67415730337078" as="geometry" />
        </mxCell>
        <mxCell id="ChkhM-89AtLazQM2Gveq-5" value="" style="edgeStyle=orthogonalEdgeStyle;rounded=1;orthogonalLoop=1;jettySize=auto;html=1;labelBackgroundColor=none;fontColor=default;fontStyle=0;strokeColor=#09555B;" parent="1" source="ChkhM-89AtLazQM2Gveq-2" target="ChkhM-89AtLazQM2Gveq-4" edge="1">
          <mxGeometry relative="1" as="geometry" />
        </mxCell>
        <mxCell id="ChkhM-89AtLazQM2Gveq-2" value="display splash screen" style="rounded=1;whiteSpace=wrap;html=1;labelBackgroundColor=none;fontSize=10;fontStyle=0;strokeColor=#D0CEE2;fillColor=#FAD9D5;fontColor=#1A1A1A;" parent="1" vertex="1">
          <mxGeometry x="120.87692307692309" y="171.01123595505618" width="145.84615384615387" height="75.50561797752809" as="geometry" />
        </mxCell>
        <mxCell id="ChkhM-89AtLazQM2Gveq-7" value="" style="edgeStyle=orthogonalEdgeStyle;rounded=0;hachureGap=4;orthogonalLoop=1;jettySize=auto;html=1;fontFamily=Architects Daughter;fontSource=https%3A%2F%2Ffonts.googleapis.com%2Fcss%3Ffamily%3DArchitects%2BDaughter;fontStyle=0;strokeColor=#09555B;labelBackgroundColor=none;fontColor=default;" parent="1" source="ChkhM-89AtLazQM2Gveq-4" target="ChkhM-89AtLazQM2Gveq-6" edge="1">
          <mxGeometry relative="1" as="geometry" />
        </mxCell>
        <mxCell id="ChkhM-89AtLazQM2Gveq-4" value="display front page" style="rounded=1;whiteSpace=wrap;html=1;labelBackgroundColor=none;fontSize=10;fontStyle=0;strokeColor=#D0CEE2;fillColor=#FAD9D5;fontColor=#1A1A1A;" parent="1" vertex="1">
          <mxGeometry x="120.87692307692309" y="296.8539325842696" width="145.84615384615387" height="75.50561797752809" as="geometry" />
        </mxCell>
        <mxCell id="ChkhM-89AtLazQM2Gveq-9" style="edgeStyle=orthogonalEdgeStyle;rounded=0;hachureGap=4;orthogonalLoop=1;jettySize=auto;html=1;entryX=0.5;entryY=0;entryDx=0;entryDy=0;fontFamily=Architects Daughter;fontSource=https%3A%2F%2Ffonts.googleapis.com%2Fcss%3Ffamily%3DArchitects%2BDaughter;labelBackgroundColor=none;strokeColor=#09555B;fontColor=default;" parent="1" source="ChkhM-89AtLazQM2Gveq-6" target="ChkhM-89AtLazQM2Gveq-8" edge="1">
          <mxGeometry relative="1" as="geometry" />
        </mxCell>
        <mxCell id="ChkhM-89AtLazQM2Gveq-28" value="Yes" style="edgeLabel;html=1;align=center;verticalAlign=middle;resizable=0;points=[];labelBackgroundColor=none;fontColor=#1A1A1A;" parent="ChkhM-89AtLazQM2Gveq-9" vertex="1" connectable="0">
          <mxGeometry x="-0.4094" relative="1" as="geometry">
            <mxPoint as="offset" />
          </mxGeometry>
        </mxCell>
        <mxCell id="ChkhM-89AtLazQM2Gveq-26" value="" style="edgeStyle=orthogonalEdgeStyle;rounded=0;orthogonalLoop=1;jettySize=auto;html=1;labelBackgroundColor=none;strokeColor=#09555B;fontColor=default;" parent="1" source="ChkhM-89AtLazQM2Gveq-6" target="ChkhM-89AtLazQM2Gveq-25" edge="1">
          <mxGeometry relative="1" as="geometry" />
        </mxCell>
        <mxCell id="ChkhM-89AtLazQM2Gveq-27" value="No" style="edgeLabel;html=1;align=center;verticalAlign=middle;resizable=0;points=[];labelBackgroundColor=none;fontColor=#1A1A1A;" parent="ChkhM-89AtLazQM2Gveq-26" vertex="1" connectable="0">
          <mxGeometry x="0.0672" y="1" relative="1" as="geometry">
            <mxPoint as="offset" />
          </mxGeometry>
        </mxCell>
        <mxCell id="ChkhM-89AtLazQM2Gveq-6" value="user clicks login button?" style="rhombus;whiteSpace=wrap;html=1;rounded=1;labelBackgroundColor=none;fontSize=10;fontStyle=0;labelBorderColor=none;strokeColor=#D0CEE2;fillColor=#FAD9D5;fontColor=#1A1A1A;" parent="1" vertex="1">
          <mxGeometry x="134.85384615384618" y="422.6966292134831" width="117.8923076923077" height="100.67415730337078" as="geometry" />
        </mxCell>
        <mxCell id="ChkhM-89AtLazQM2Gveq-11" value="" style="edgeStyle=orthogonalEdgeStyle;rounded=0;orthogonalLoop=1;jettySize=auto;html=1;labelBackgroundColor=none;strokeColor=#09555B;fontColor=default;" parent="1" source="ChkhM-89AtLazQM2Gveq-8" target="ChkhM-89AtLazQM2Gveq-10" edge="1">
          <mxGeometry relative="1" as="geometry" />
        </mxCell>
        <mxCell id="ChkhM-89AtLazQM2Gveq-8" value="input username and password" style="shape=parallelogram;perimeter=parallelogramPerimeter;whiteSpace=wrap;html=1;fixedSize=1;hachureGap=4;fontFamily=Helvetica;fontSize=10;labelBackgroundColor=none;fillColor=#FAD9D5;strokeColor=#D0CEE2;fontColor=#1A1A1A;" parent="1" vertex="1">
          <mxGeometry x="134.85384615384618" y="580" width="116.67692307692309" height="62.92134831460674" as="geometry" />
        </mxCell>
        <mxCell id="ChkhM-89AtLazQM2Gveq-13" value="" style="edgeStyle=orthogonalEdgeStyle;rounded=0;orthogonalLoop=1;jettySize=auto;html=1;labelBackgroundColor=none;strokeColor=#09555B;fontColor=default;" parent="1" source="ChkhM-89AtLazQM2Gveq-10" target="ChkhM-89AtLazQM2Gveq-12" edge="1">
          <mxGeometry relative="1" as="geometry" />
        </mxCell>
        <mxCell id="ChkhM-89AtLazQM2Gveq-18" value="Yes" style="edgeLabel;html=1;align=center;verticalAlign=middle;resizable=0;points=[];labelBackgroundColor=none;fontColor=#1A1A1A;" parent="ChkhM-89AtLazQM2Gveq-13" vertex="1" connectable="0">
          <mxGeometry x="-0.3733" y="-1" relative="1" as="geometry">
            <mxPoint as="offset" />
          </mxGeometry>
        </mxCell>
        <mxCell id="ChkhM-89AtLazQM2Gveq-41" style="edgeStyle=orthogonalEdgeStyle;rounded=0;orthogonalLoop=1;jettySize=auto;html=1;entryX=0.1;entryY=0.416;entryDx=0;entryDy=0;entryPerimeter=0;labelBackgroundColor=none;strokeColor=#09555B;fontColor=default;" parent="1" source="ChkhM-89AtLazQM2Gveq-10" target="ChkhM-89AtLazQM2Gveq-8" edge="1">
          <mxGeometry relative="1" as="geometry">
            <mxPoint x="20" y="598.876404494382" as="targetPoint" />
            <Array as="points">
              <mxPoint x="20" y="749.8876404494382" />
              <mxPoint x="20" y="606.4269662921348" />
            </Array>
          </mxGeometry>
        </mxCell>
        <mxCell id="ChkhM-89AtLazQM2Gveq-42" value="No" style="edgeLabel;html=1;align=center;verticalAlign=middle;resizable=0;points=[];labelBackgroundColor=none;fontColor=#1A1A1A;" parent="ChkhM-89AtLazQM2Gveq-41" vertex="1" connectable="0">
          <mxGeometry x="0.0244" y="-1" relative="1" as="geometry">
            <mxPoint as="offset" />
          </mxGeometry>
        </mxCell>
        <mxCell id="ChkhM-89AtLazQM2Gveq-10" value="account exist?" style="rhombus;whiteSpace=wrap;html=1;fontSize=10;hachureGap=4;labelBackgroundColor=none;fillColor=#FAD9D5;strokeColor=#D0CEE2;fontColor=#1A1A1A;" parent="1" vertex="1">
          <mxGeometry x="144.5769230769231" y="699.5505617977528" width="97.23076923076924" height="100.67415730337078" as="geometry" />
        </mxCell>
        <mxCell id="ChkhM-89AtLazQM2Gveq-15" value="" style="edgeStyle=orthogonalEdgeStyle;rounded=0;orthogonalLoop=1;jettySize=auto;html=1;entryX=0.5;entryY=0;entryDx=0;entryDy=0;labelBackgroundColor=none;strokeColor=#09555B;fontColor=default;" parent="1" source="ChkhM-89AtLazQM2Gveq-12" target="ChkhM-89AtLazQM2Gveq-16" edge="1">
          <mxGeometry relative="1" as="geometry">
            <mxPoint x="193.1923076923077" y="1026.741573033708" as="targetPoint" />
          </mxGeometry>
        </mxCell>
        <mxCell id="ChkhM-89AtLazQM2Gveq-19" value="Yes" style="edgeLabel;html=1;align=center;verticalAlign=middle;resizable=0;points=[];labelBackgroundColor=none;fontColor=#1A1A1A;" parent="ChkhM-89AtLazQM2Gveq-15" vertex="1" connectable="0">
          <mxGeometry x="-0.1" y="1" relative="1" as="geometry">
            <mxPoint as="offset" />
          </mxGeometry>
        </mxCell>
        <mxCell id="ChkhM-89AtLazQM2Gveq-20" style="edgeStyle=orthogonalEdgeStyle;rounded=0;orthogonalLoop=1;jettySize=auto;html=1;entryX=0;entryY=0.5;entryDx=0;entryDy=0;labelBackgroundColor=none;strokeColor=#09555B;fontColor=default;" parent="1" source="ChkhM-89AtLazQM2Gveq-12" target="ChkhM-89AtLazQM2Gveq-17" edge="1">
          <mxGeometry relative="1" as="geometry">
            <mxPoint x="396.7692307692308" y="951.2359550561798" as="targetPoint" />
          </mxGeometry>
        </mxCell>
        <mxCell id="ChkhM-89AtLazQM2Gveq-21" value="No" style="edgeLabel;html=1;align=center;verticalAlign=middle;resizable=0;points=[];labelBackgroundColor=none;fontColor=#1A1A1A;" parent="ChkhM-89AtLazQM2Gveq-20" vertex="1" connectable="0">
          <mxGeometry x="-0.057" y="1" relative="1" as="geometry">
            <mxPoint as="offset" />
          </mxGeometry>
        </mxCell>
        <mxCell id="ChkhM-89AtLazQM2Gveq-12" value="is account admin?" style="rhombus;whiteSpace=wrap;html=1;fontSize=10;hachureGap=4;labelBackgroundColor=none;fillColor=#FAD9D5;strokeColor=#D0CEE2;fontColor=#1A1A1A;" parent="1" vertex="1">
          <mxGeometry x="144.5769230769231" y="863.1460674157303" width="97.23076923076924" height="100.67415730337078" as="geometry" />
        </mxCell>
        <mxCell id="ChkhM-89AtLazQM2Gveq-16" value="admin" style="verticalLabelPosition=bottom;verticalAlign=top;html=1;shape=offPageConnector;rounded=0;size=0.5;labelBackgroundColor=none;fillColor=#FAD9D5;strokeColor=#D0CEE2;fontColor=#1A1A1A;" parent="1" vertex="1">
          <mxGeometry x="156.73076923076925" y="1064.4943820224719" width="72.92307692307693" height="75.50561797752809" as="geometry" />
        </mxCell>
        <mxCell id="ChkhM-89AtLazQM2Gveq-17" value="Staff" style="verticalLabelPosition=bottom;verticalAlign=top;html=1;shape=offPageConnector;rounded=0;size=0.5;labelBackgroundColor=none;fillColor=#FAD9D5;strokeColor=#D0CEE2;fontColor=#1A1A1A;" parent="1" vertex="1">
          <mxGeometry x="408.92307692307696" y="875.7303370786517" width="72.92307692307693" height="75.50561797752809" as="geometry" />
        </mxCell>
        <mxCell id="ChkhM-89AtLazQM2Gveq-31" style="edgeStyle=orthogonalEdgeStyle;rounded=0;orthogonalLoop=1;jettySize=auto;html=1;labelBackgroundColor=none;strokeColor=#09555B;fontColor=default;" parent="1" source="ChkhM-89AtLazQM2Gveq-25" target="ChkhM-89AtLazQM2Gveq-30" edge="1">
          <mxGeometry relative="1" as="geometry" />
        </mxCell>
        <mxCell id="ChkhM-89AtLazQM2Gveq-32" value="Yes" style="edgeLabel;html=1;align=center;verticalAlign=middle;resizable=0;points=[];labelBackgroundColor=none;fontColor=#1A1A1A;" parent="ChkhM-89AtLazQM2Gveq-31" vertex="1" connectable="0">
          <mxGeometry x="-0.2057" relative="1" as="geometry">
            <mxPoint as="offset" />
          </mxGeometry>
        </mxCell>
        <mxCell id="ChkhM-89AtLazQM2Gveq-43" style="edgeStyle=orthogonalEdgeStyle;rounded=0;orthogonalLoop=1;jettySize=auto;html=1;entryX=1;entryY=0.5;entryDx=0;entryDy=0;exitX=0.5;exitY=0;exitDx=0;exitDy=0;labelBackgroundColor=none;strokeColor=#09555B;fontColor=default;" parent="1" source="ChkhM-89AtLazQM2Gveq-25" target="ChkhM-89AtLazQM2Gveq-4" edge="1">
          <mxGeometry relative="1" as="geometry">
            <mxPoint x="421.07692307692315" y="410.1123595505618" as="sourcePoint" />
            <mxPoint x="418.03846153846155" y="340.8988764044944" as="targetPoint" />
            <Array as="points">
              <mxPoint x="390.69230769230774" y="334.6067415730337" />
            </Array>
          </mxGeometry>
        </mxCell>
        <mxCell id="ChkhM-89AtLazQM2Gveq-44" value="No" style="edgeLabel;html=1;align=center;verticalAlign=middle;resizable=0;points=[];labelBackgroundColor=none;fontColor=#1A1A1A;" parent="ChkhM-89AtLazQM2Gveq-43" vertex="1" connectable="0">
          <mxGeometry x="-0.04" y="-2" relative="1" as="geometry">
            <mxPoint x="13" y="32" as="offset" />
          </mxGeometry>
        </mxCell>
        <mxCell id="ChkhM-89AtLazQM2Gveq-25" value="account clicks sign up button?" style="rhombus;whiteSpace=wrap;html=1;fontSize=10;rounded=1;labelBackgroundColor=none;fontStyle=0;labelBorderColor=none;fillColor=#FAD9D5;strokeColor=#D0CEE2;fontColor=#1A1A1A;" parent="1" vertex="1">
          <mxGeometry x="336" y="422.6966292134831" width="109.38461538461539" height="100.67415730337078" as="geometry" />
        </mxCell>
        <mxCell id="ChkhM-89AtLazQM2Gveq-50" value="" style="edgeStyle=orthogonalEdgeStyle;rounded=0;orthogonalLoop=1;jettySize=auto;html=1;labelBackgroundColor=none;strokeColor=#09555B;fontColor=default;" parent="1" source="ChkhM-89AtLazQM2Gveq-30" target="ChkhM-89AtLazQM2Gveq-49" edge="1">
          <mxGeometry relative="1" as="geometry" />
        </mxCell>
        <mxCell id="ChkhM-89AtLazQM2Gveq-30" value="input user informations" style="shape=parallelogram;perimeter=parallelogramPerimeter;whiteSpace=wrap;html=1;fixedSize=1;hachureGap=4;fontFamily=Helvetica;fontSize=10;labelBackgroundColor=none;fillColor=#FAD9D5;strokeColor=#D0CEE2;fontColor=#1A1A1A;" parent="1" vertex="1">
          <mxGeometry x="494" y="441.57303370786514" width="116.67692307692309" height="62.92134831460674" as="geometry" />
        </mxCell>
        <mxCell id="dZI2IBMkfvY6WxOheX1u-1" style="edgeStyle=orthogonalEdgeStyle;rounded=0;orthogonalLoop=1;jettySize=auto;html=1;strokeColor=#09555B;fontColor=#1A1A1A;" parent="1" source="ChkhM-89AtLazQM2Gveq-33" edge="1">
          <mxGeometry relative="1" as="geometry">
            <mxPoint x="120" y="335" as="targetPoint" />
          </mxGeometry>
        </mxCell>
        <mxCell id="ChkhM-89AtLazQM2Gveq-33" value="A" style="ellipse;whiteSpace=wrap;html=1;labelBackgroundColor=none;rounded=1;fontStyle=0;fillColor=#FAD9D5;strokeColor=#D0CEE2;fontColor=#1A1A1A;rotation=0;" parent="1" vertex="1">
          <mxGeometry x="10.00153846153853" y="303.14640449438207" width="60.769230769230774" height="62.92134831460674" as="geometry" />
        </mxCell>
        <mxCell id="ChkhM-89AtLazQM2Gveq-52" value="" style="edgeStyle=orthogonalEdgeStyle;rounded=0;orthogonalLoop=1;jettySize=auto;html=1;labelBackgroundColor=none;strokeColor=#09555B;fontColor=default;" parent="1" source="ChkhM-89AtLazQM2Gveq-49" target="ChkhM-89AtLazQM2Gveq-51" edge="1">
          <mxGeometry relative="1" as="geometry" />
        </mxCell>
        <mxCell id="ChkhM-89AtLazQM2Gveq-54" value="Yes" style="edgeLabel;html=1;align=center;verticalAlign=middle;resizable=0;points=[];labelBackgroundColor=none;fontColor=#1A1A1A;" parent="ChkhM-89AtLazQM2Gveq-52" vertex="1" connectable="0">
          <mxGeometry x="-0.2533" y="1" relative="1" as="geometry">
            <mxPoint as="offset" />
          </mxGeometry>
        </mxCell>
        <mxCell id="ChkhM-89AtLazQM2Gveq-55" style="edgeStyle=orthogonalEdgeStyle;rounded=0;orthogonalLoop=1;jettySize=auto;html=1;entryX=0.5;entryY=0;entryDx=0;entryDy=0;labelBackgroundColor=none;strokeColor=#09555B;fontColor=default;" parent="1" source="ChkhM-89AtLazQM2Gveq-49" target="ChkhM-89AtLazQM2Gveq-30" edge="1">
          <mxGeometry relative="1" as="geometry">
            <Array as="points">
              <mxPoint x="810" y="473.03370786516854" />
              <mxPoint x="810" y="322.02247191011236" />
              <mxPoint x="552.3384615384616" y="322.02247191011236" />
            </Array>
          </mxGeometry>
        </mxCell>
        <mxCell id="ChkhM-89AtLazQM2Gveq-56" value="No" style="edgeLabel;html=1;align=center;verticalAlign=middle;resizable=0;points=[];labelBackgroundColor=none;fontColor=#1A1A1A;" parent="ChkhM-89AtLazQM2Gveq-55" vertex="1" connectable="0">
          <mxGeometry x="-0.891" relative="1" as="geometry">
            <mxPoint as="offset" />
          </mxGeometry>
        </mxCell>
        <mxCell id="ChkhM-89AtLazQM2Gveq-49" value="valid inputs?" style="rhombus;whiteSpace=wrap;html=1;fontSize=10;hachureGap=4;labelBackgroundColor=none;fillColor=#FAD9D5;strokeColor=#D0CEE2;fontColor=#1A1A1A;" parent="1" vertex="1">
          <mxGeometry x="652" y="422.6966292134831" width="97.23076923076924" height="100.67415730337078" as="geometry" />
        </mxCell>
        <mxCell id="ChkhM-89AtLazQM2Gveq-51" value="display feedback message" style="whiteSpace=wrap;html=1;fontSize=10;hachureGap=4;labelBackgroundColor=none;fillColor=#FAD9D5;strokeColor=#D0CEE2;fontColor=#1A1A1A;" parent="1" vertex="1">
          <mxGeometry x="627.6923076923078" y="573.7078651685392" width="145.84615384615387" height="75.50561797752809" as="geometry" />
        </mxCell>
        <mxCell id="ChkhM-89AtLazQM2Gveq-53" style="edgeStyle=orthogonalEdgeStyle;rounded=0;orthogonalLoop=1;jettySize=auto;html=1;entryX=1;entryY=0.5;entryDx=0;entryDy=0;labelBackgroundColor=none;strokeColor=#09555B;fontColor=default;" parent="1" source="ChkhM-89AtLazQM2Gveq-51" target="ChkhM-89AtLazQM2Gveq-8" edge="1">
          <mxGeometry relative="1" as="geometry">
            <mxPoint x="250.92307692307696" y="617.7528089887641" as="targetPoint" />
          </mxGeometry>
        </mxCell>
      </root>
    </mxGraphModel>
  </diagram>
  <diagram id="j7y9SkTldqjdPdmuG4II" name="admin-page">
    <mxGraphModel dx="2015" dy="1792" grid="1" gridSize="10" guides="1" tooltips="1" connect="1" arrows="1" fold="1" page="1" pageScale="1" pageWidth="827" pageHeight="1169" math="0" shadow="0">
      <root>
        <mxCell id="0" />
        <mxCell id="1" parent="0" />
        <mxCell id="mhCDdlAzMROOvfOSb-IU-3" value="" style="edgeStyle=orthogonalEdgeStyle;rounded=0;orthogonalLoop=1;jettySize=auto;html=1;strokeColor=#09555B;fontColor=#1A1A1A;fontSize=10;textShadow=1;" parent="1" source="mhCDdlAzMROOvfOSb-IU-1" target="mhCDdlAzMROOvfOSb-IU-2" edge="1">
          <mxGeometry relative="1" as="geometry" />
        </mxCell>
        <mxCell id="mhCDdlAzMROOvfOSb-IU-1" value="admin" style="verticalLabelPosition=bottom;verticalAlign=top;html=1;shape=offPageConnector;rounded=0;size=0.5;strokeColor=#D0CEE2;fontColor=#1A1A1A;fillColor=#FAD9D5;fontSize=10;container=0;textShadow=1;shadow=1;gradientColor=none;" parent="1" vertex="1">
          <mxGeometry x="-790" y="-1160" width="60" height="60" as="geometry" />
        </mxCell>
        <mxCell id="mhCDdlAzMROOvfOSb-IU-7" value="" style="edgeStyle=orthogonalEdgeStyle;rounded=0;orthogonalLoop=1;jettySize=auto;html=1;strokeColor=#09555B;fontColor=#1A1A1A;fontSize=10;textShadow=1;flowAnimation=0;" parent="1" source="mhCDdlAzMROOvfOSb-IU-2" target="mhCDdlAzMROOvfOSb-IU-6" edge="1">
          <mxGeometry relative="1" as="geometry" />
        </mxCell>
        <mxCell id="mhCDdlAzMROOvfOSb-IU-29" value="" style="edgeStyle=orthogonalEdgeStyle;rounded=0;orthogonalLoop=1;jettySize=auto;html=1;strokeColor=#09555B;fontColor=#1A1A1A;fontSize=10;textShadow=1;" parent="1" source="mhCDdlAzMROOvfOSb-IU-2" target="mhCDdlAzMROOvfOSb-IU-28" edge="1">
          <mxGeometry relative="1" as="geometry" />
        </mxCell>
        <mxCell id="mhCDdlAzMROOvfOSb-IU-2" value="display admin dashboard" style="whiteSpace=wrap;html=1;verticalAlign=middle;fillColor=#FAD9D5;strokeColor=#D0CEE2;fontColor=#1A1A1A;rounded=1;fontSize=10;container=0;textShadow=1;shadow=1;gradientColor=none;" parent="1" vertex="1">
          <mxGeometry x="-820" y="-1040" width="120" height="50" as="geometry" />
        </mxCell>
        <mxCell id="mhCDdlAzMROOvfOSb-IU-84" style="edgeStyle=orthogonalEdgeStyle;rounded=0;orthogonalLoop=1;jettySize=auto;html=1;entryX=0;entryY=0.5;entryDx=0;entryDy=0;strokeColor=#09555B;fontColor=#1A1A1A;fontSize=10;textShadow=1;" parent="1" source="mhCDdlAzMROOvfOSb-IU-6" target="mhCDdlAzMROOvfOSb-IU-83" edge="1">
          <mxGeometry relative="1" as="geometry" />
        </mxCell>
        <mxCell id="mhCDdlAzMROOvfOSb-IU-6" value="display stock levels" style="whiteSpace=wrap;html=1;fontSize=10;fillColor=#FAD9D5;strokeColor=#D0CEE2;fontColor=#1A1A1A;rounded=1;container=0;textShadow=1;shadow=1;gradientColor=none;" parent="1" vertex="1">
          <mxGeometry x="-630" y="-1040" width="120" height="50" as="geometry" />
        </mxCell>
        <mxCell id="mhCDdlAzMROOvfOSb-IU-41" value="" style="edgeStyle=orthogonalEdgeStyle;rounded=0;orthogonalLoop=1;jettySize=auto;html=1;strokeColor=#09555B;fontColor=#1A1A1A;fontSize=10;textShadow=1;" parent="1" source="mhCDdlAzMROOvfOSb-IU-28" target="mhCDdlAzMROOvfOSb-IU-40" edge="1">
          <mxGeometry relative="1" as="geometry" />
        </mxCell>
        <mxCell id="mhCDdlAzMROOvfOSb-IU-28" value="display monthly report" style="whiteSpace=wrap;html=1;fontSize=10;fillColor=#FAD9D5;strokeColor=#D0CEE2;fontColor=#1A1A1A;rounded=1;container=0;textShadow=1;shadow=1;" parent="1" vertex="1">
          <mxGeometry x="-820" y="-930" width="120" height="50" as="geometry" />
        </mxCell>
        <mxCell id="mhCDdlAzMROOvfOSb-IU-34" style="edgeStyle=orthogonalEdgeStyle;rounded=0;orthogonalLoop=1;jettySize=auto;html=1;entryX=0;entryY=0.5;entryDx=0;entryDy=0;strokeColor=#09555B;fontColor=#1A1A1A;fontSize=10;textShadow=1;" parent="1" source="mhCDdlAzMROOvfOSb-IU-30" target="mhCDdlAzMROOvfOSb-IU-31" edge="1">
          <mxGeometry relative="1" as="geometry" />
        </mxCell>
        <mxCell id="mhCDdlAzMROOvfOSb-IU-30" value="display total item sold" style="whiteSpace=wrap;html=1;fontSize=10;fillColor=#FAD9D5;strokeColor=#D0CEE2;fontColor=#1A1A1A;rounded=1;container=0;textShadow=1;shadow=1;" parent="1" vertex="1">
          <mxGeometry x="-670" y="-930" width="90" height="50" as="geometry" />
        </mxCell>
        <mxCell id="mhCDdlAzMROOvfOSb-IU-35" style="edgeStyle=orthogonalEdgeStyle;rounded=0;orthogonalLoop=1;jettySize=auto;html=1;entryX=0;entryY=0.5;entryDx=0;entryDy=0;strokeColor=#09555B;fontColor=#1A1A1A;fontSize=10;textShadow=1;" parent="1" source="mhCDdlAzMROOvfOSb-IU-31" target="mhCDdlAzMROOvfOSb-IU-32" edge="1">
          <mxGeometry relative="1" as="geometry" />
        </mxCell>
        <mxCell id="mhCDdlAzMROOvfOSb-IU-31" value="display total profit" style="whiteSpace=wrap;html=1;fontSize=10;fillColor=#FAD9D5;strokeColor=#D0CEE2;fontColor=#1A1A1A;rounded=1;container=0;textShadow=1;shadow=1;" parent="1" vertex="1">
          <mxGeometry x="-550" y="-930" width="90" height="50" as="geometry" />
        </mxCell>
        <mxCell id="mhCDdlAzMROOvfOSb-IU-37" value="" style="edgeStyle=orthogonalEdgeStyle;rounded=0;orthogonalLoop=1;jettySize=auto;html=1;strokeColor=#09555B;fontColor=#1A1A1A;fontSize=10;textShadow=1;" parent="1" source="mhCDdlAzMROOvfOSb-IU-32" target="mhCDdlAzMROOvfOSb-IU-36" edge="1">
          <mxGeometry relative="1" as="geometry" />
        </mxCell>
        <mxCell id="mhCDdlAzMROOvfOSb-IU-32" value="display total expense" style="whiteSpace=wrap;html=1;fontSize=10;fillColor=#FAD9D5;strokeColor=#D0CEE2;fontColor=#1A1A1A;rounded=1;container=0;textShadow=1;shadow=1;" parent="1" vertex="1">
          <mxGeometry x="-420" y="-930" width="90" height="50" as="geometry" />
        </mxCell>
        <mxCell id="mhCDdlAzMROOvfOSb-IU-33" style="edgeStyle=orthogonalEdgeStyle;rounded=0;orthogonalLoop=1;jettySize=auto;html=1;entryX=-0.022;entryY=0.5;entryDx=0;entryDy=0;entryPerimeter=0;strokeColor=#09555B;fontColor=#1A1A1A;fontSize=10;textShadow=1;" parent="1" source="mhCDdlAzMROOvfOSb-IU-28" target="mhCDdlAzMROOvfOSb-IU-30" edge="1">
          <mxGeometry relative="1" as="geometry" />
        </mxCell>
        <mxCell id="mhCDdlAzMROOvfOSb-IU-39" value="" style="edgeStyle=orthogonalEdgeStyle;rounded=0;orthogonalLoop=1;jettySize=auto;html=1;strokeColor=#09555B;fontColor=#1A1A1A;fontSize=10;textShadow=1;" parent="1" source="mhCDdlAzMROOvfOSb-IU-36" target="mhCDdlAzMROOvfOSb-IU-38" edge="1">
          <mxGeometry relative="1" as="geometry" />
        </mxCell>
        <mxCell id="mhCDdlAzMROOvfOSb-IU-36" value="view more button clicked?" style="rhombus;whiteSpace=wrap;html=1;fontSize=10;fillColor=#FAD9D5;strokeColor=#D0CEE2;fontColor=#1A1A1A;rounded=1;container=0;textShadow=1;shadow=1;" parent="1" vertex="1">
          <mxGeometry x="-290" y="-940" width="80" height="70" as="geometry" />
        </mxCell>
        <mxCell id="1BU2WoQlICU336hxP3sF-62" style="edgeStyle=orthogonalEdgeStyle;rounded=0;orthogonalLoop=1;jettySize=auto;html=1;strokeColor=#09555B;fontColor=#1A1A1A;textShadow=1;" parent="1" source="mhCDdlAzMROOvfOSb-IU-38" edge="1">
          <mxGeometry relative="1" as="geometry">
            <mxPoint x="-30" y="-905" as="targetPoint" />
          </mxGeometry>
        </mxCell>
        <mxCell id="mhCDdlAzMROOvfOSb-IU-38" value="B" style="ellipse;whiteSpace=wrap;html=1;fontSize=10;fillColor=#FAD9D5;strokeColor=#D0CEE2;fontColor=#1A1A1A;rounded=0;container=0;textShadow=1;shadow=1;" parent="1" vertex="1">
          <mxGeometry x="-160" y="-940" width="80" height="70" as="geometry" />
        </mxCell>
        <mxCell id="mhCDdlAzMROOvfOSb-IU-52" style="edgeStyle=orthogonalEdgeStyle;rounded=0;orthogonalLoop=1;jettySize=auto;html=1;entryX=0.5;entryY=0;entryDx=0;entryDy=0;strokeColor=#09555B;fontColor=#1A1A1A;fontSize=10;textShadow=1;" parent="1" source="mhCDdlAzMROOvfOSb-IU-40" target="mhCDdlAzMROOvfOSb-IU-43" edge="1">
          <mxGeometry relative="1" as="geometry" />
        </mxCell>
        <mxCell id="mhCDdlAzMROOvfOSb-IU-40" value="display popular items" style="whiteSpace=wrap;html=1;fontSize=10;fillColor=#FAD9D5;strokeColor=#D0CEE2;fontColor=#1A1A1A;rounded=0;container=0;textShadow=1;" parent="1" vertex="1">
          <mxGeometry x="-820" y="-850" width="120" height="50" as="geometry" />
        </mxCell>
        <mxCell id="mhCDdlAzMROOvfOSb-IU-42" value="display less popular items" style="whiteSpace=wrap;html=1;fontSize=10;fillColor=#FAD9D5;strokeColor=#D0CEE2;fontColor=#1A1A1A;rounded=0;container=0;textShadow=1;" parent="1" vertex="1">
          <mxGeometry x="-660" y="-850" width="120" height="50" as="geometry" />
        </mxCell>
        <mxCell id="mhCDdlAzMROOvfOSb-IU-45" value="" style="edgeStyle=orthogonalEdgeStyle;rounded=0;orthogonalLoop=1;jettySize=auto;html=1;strokeColor=#09555B;fontColor=#1A1A1A;fontSize=10;textShadow=1;" parent="1" source="mhCDdlAzMROOvfOSb-IU-43" target="mhCDdlAzMROOvfOSb-IU-44" edge="1">
          <mxGeometry relative="1" as="geometry" />
        </mxCell>
        <mxCell id="mhCDdlAzMROOvfOSb-IU-55" value="" style="edgeStyle=orthogonalEdgeStyle;rounded=0;orthogonalLoop=1;jettySize=auto;html=1;strokeColor=#09555B;fontColor=#1A1A1A;fontSize=10;textShadow=1;" parent="1" source="mhCDdlAzMROOvfOSb-IU-43" target="mhCDdlAzMROOvfOSb-IU-54" edge="1">
          <mxGeometry relative="1" as="geometry" />
        </mxCell>
        <mxCell id="mhCDdlAzMROOvfOSb-IU-68" value="Buttons" style="edgeLabel;html=1;align=center;verticalAlign=middle;resizable=0;points=[];strokeColor=#D0CEE2;fontColor=#1A1A1A;fillColor=#FAD9D5;fontSize=10;container=0;textShadow=1;" parent="mhCDdlAzMROOvfOSb-IU-55" vertex="1" connectable="0">
          <mxGeometry relative="1" as="geometry">
            <mxPoint as="offset" />
          </mxGeometry>
        </mxCell>
        <mxCell id="mhCDdlAzMROOvfOSb-IU-43" value="notification" style="whiteSpace=wrap;html=1;fontSize=10;fillColor=#FAD9D5;strokeColor=#D0CEE2;fontColor=#1A1A1A;rounded=0;container=0;textShadow=1;" parent="1" vertex="1">
          <mxGeometry x="-820" y="-770" width="120" height="50" as="geometry" />
        </mxCell>
        <mxCell id="mhCDdlAzMROOvfOSb-IU-47" value="" style="edgeStyle=orthogonalEdgeStyle;rounded=0;orthogonalLoop=1;jettySize=auto;html=1;strokeColor=#09555B;fontColor=#1A1A1A;fontSize=10;textShadow=1;" parent="1" source="mhCDdlAzMROOvfOSb-IU-44" target="mhCDdlAzMROOvfOSb-IU-46" edge="1">
          <mxGeometry relative="1" as="geometry" />
        </mxCell>
        <mxCell id="mhCDdlAzMROOvfOSb-IU-48" value="No" style="edgeLabel;html=1;align=center;verticalAlign=middle;resizable=0;points=[];strokeColor=#D0CEE2;fontColor=#1A1A1A;fillColor=#FAD9D5;fontSize=10;container=0;textShadow=1;" parent="mhCDdlAzMROOvfOSb-IU-47" vertex="1" connectable="0">
          <mxGeometry relative="1" as="geometry">
            <mxPoint as="offset" />
          </mxGeometry>
        </mxCell>
        <mxCell id="mhCDdlAzMROOvfOSb-IU-50" style="edgeStyle=orthogonalEdgeStyle;rounded=0;orthogonalLoop=1;jettySize=auto;html=1;entryX=0.5;entryY=0;entryDx=0;entryDy=0;strokeColor=#09555B;fontColor=#1A1A1A;fontSize=10;textShadow=1;" parent="1" source="mhCDdlAzMROOvfOSb-IU-44" target="mhCDdlAzMROOvfOSb-IU-49" edge="1">
          <mxGeometry relative="1" as="geometry" />
        </mxCell>
        <mxCell id="mhCDdlAzMROOvfOSb-IU-51" value="Yes" style="edgeLabel;html=1;align=center;verticalAlign=middle;resizable=0;points=[];strokeColor=#D0CEE2;fontColor=#1A1A1A;fillColor=#FAD9D5;fontSize=10;container=0;textShadow=1;" parent="mhCDdlAzMROOvfOSb-IU-50" vertex="1" connectable="0">
          <mxGeometry relative="1" as="geometry">
            <mxPoint as="offset" />
          </mxGeometry>
        </mxCell>
        <mxCell id="mhCDdlAzMROOvfOSb-IU-44" value="notification empty?" style="rhombus;whiteSpace=wrap;html=1;fontSize=10;fillColor=#FAD9D5;strokeColor=#D0CEE2;fontColor=#1A1A1A;rounded=0;container=0;textShadow=1;" parent="1" vertex="1">
          <mxGeometry x="-440" y="-780" width="80" height="70" as="geometry" />
        </mxCell>
        <mxCell id="XDSdG-mEKXDA12OQijBU-1" style="edgeStyle=orthogonalEdgeStyle;rounded=0;orthogonalLoop=1;jettySize=auto;html=1;strokeColor=#09555B;fontColor=#1A1A1A;textShadow=1;" edge="1" parent="1" source="mhCDdlAzMROOvfOSb-IU-46">
          <mxGeometry relative="1" as="geometry">
            <mxPoint x="-30" y="-745" as="targetPoint" />
          </mxGeometry>
        </mxCell>
        <mxCell id="mhCDdlAzMROOvfOSb-IU-46" value="display notification" style="whiteSpace=wrap;html=1;fontSize=10;fillColor=#FAD9D5;strokeColor=#D0CEE2;fontColor=#1A1A1A;rounded=0;container=0;textShadow=1;" parent="1" vertex="1">
          <mxGeometry x="-230" y="-770" width="120" height="50" as="geometry" />
        </mxCell>
        <mxCell id="mhCDdlAzMROOvfOSb-IU-49" value="display empty notification" style="whiteSpace=wrap;html=1;fontSize=10;fillColor=#FAD9D5;strokeColor=#D0CEE2;fontColor=#1A1A1A;rounded=1;container=0;textShadow=1;glass=0;shadow=1;" parent="1" vertex="1">
          <mxGeometry x="-460" y="-670" width="120" height="50" as="geometry" />
        </mxCell>
        <mxCell id="mhCDdlAzMROOvfOSb-IU-53" style="edgeStyle=orthogonalEdgeStyle;rounded=0;orthogonalLoop=1;jettySize=auto;html=1;entryX=-0.012;entryY=0.498;entryDx=0;entryDy=0;entryPerimeter=0;strokeColor=#09555B;fontColor=#1A1A1A;fontSize=10;textShadow=1;" parent="1" source="mhCDdlAzMROOvfOSb-IU-40" target="mhCDdlAzMROOvfOSb-IU-42" edge="1">
          <mxGeometry relative="1" as="geometry" />
        </mxCell>
        <mxCell id="mhCDdlAzMROOvfOSb-IU-57" value="" style="edgeStyle=orthogonalEdgeStyle;rounded=0;orthogonalLoop=1;jettySize=auto;html=1;strokeColor=#09555B;fontColor=#1A1A1A;fontSize=10;textShadow=1;" parent="1" source="mhCDdlAzMROOvfOSb-IU-54" target="mhCDdlAzMROOvfOSb-IU-56" edge="1">
          <mxGeometry relative="1" as="geometry" />
        </mxCell>
        <mxCell id="mhCDdlAzMROOvfOSb-IU-66" value="Yes" style="edgeLabel;html=1;align=center;verticalAlign=middle;resizable=0;points=[];strokeColor=#D0CEE2;fontColor=#1A1A1A;fillColor=#FAD9D5;fontSize=10;container=0;textShadow=1;" parent="mhCDdlAzMROOvfOSb-IU-57" vertex="1" connectable="0">
          <mxGeometry relative="1" as="geometry">
            <mxPoint as="offset" />
          </mxGeometry>
        </mxCell>
        <mxCell id="mhCDdlAzMROOvfOSb-IU-65" style="edgeStyle=orthogonalEdgeStyle;rounded=0;orthogonalLoop=1;jettySize=auto;html=1;entryX=0.5;entryY=0;entryDx=0;entryDy=0;strokeColor=#09555B;fontColor=#1A1A1A;fontSize=10;textShadow=1;" parent="1" source="mhCDdlAzMROOvfOSb-IU-54" target="mhCDdlAzMROOvfOSb-IU-64" edge="1">
          <mxGeometry relative="1" as="geometry" />
        </mxCell>
        <mxCell id="mhCDdlAzMROOvfOSb-IU-67" value="No" style="edgeLabel;html=1;align=center;verticalAlign=middle;resizable=0;points=[];strokeColor=#D0CEE2;fontColor=#1A1A1A;fillColor=#FAD9D5;fontSize=10;container=0;textShadow=1;" parent="mhCDdlAzMROOvfOSb-IU-65" vertex="1" connectable="0">
          <mxGeometry relative="1" as="geometry">
            <mxPoint y="-6" as="offset" />
          </mxGeometry>
        </mxCell>
        <mxCell id="mhCDdlAzMROOvfOSb-IU-54" value="manage button clicked?" style="rhombus;whiteSpace=wrap;html=1;fontSize=10;fillColor=#FAD9D5;strokeColor=#D0CEE2;fontColor=#1A1A1A;rounded=0;container=0;textShadow=1;" parent="1" vertex="1">
          <mxGeometry x="-800" y="-610" width="80" height="70" as="geometry" />
        </mxCell>
        <mxCell id="mhCDdlAzMROOvfOSb-IU-61" style="edgeStyle=orthogonalEdgeStyle;rounded=0;orthogonalLoop=1;jettySize=auto;html=1;entryX=0;entryY=0.5;entryDx=0;entryDy=0;strokeColor=#09555B;fontColor=#1A1A1A;fontSize=10;textShadow=1;" parent="1" source="mhCDdlAzMROOvfOSb-IU-56" target="mhCDdlAzMROOvfOSb-IU-58" edge="1">
          <mxGeometry relative="1" as="geometry" />
        </mxCell>
        <mxCell id="mhCDdlAzMROOvfOSb-IU-56" value="display manage dashboard" style="whiteSpace=wrap;html=1;fontSize=10;fillColor=#FAD9D5;strokeColor=#D0CEE2;fontColor=#1A1A1A;rounded=1;container=0;textShadow=1;glass=0;shadow=1;" parent="1" vertex="1">
          <mxGeometry x="-660" y="-600" width="120" height="50" as="geometry" />
        </mxCell>
        <mxCell id="mhCDdlAzMROOvfOSb-IU-63" value="" style="edgeStyle=orthogonalEdgeStyle;rounded=0;orthogonalLoop=1;jettySize=auto;html=1;strokeColor=#09555B;fontColor=#1A1A1A;fontSize=10;textShadow=1;" parent="1" source="mhCDdlAzMROOvfOSb-IU-58" target="mhCDdlAzMROOvfOSb-IU-62" edge="1">
          <mxGeometry relative="1" as="geometry" />
        </mxCell>
        <mxCell id="mhCDdlAzMROOvfOSb-IU-58" value="manage predefined process" style="verticalLabelPosition=bottom;verticalAlign=top;html=1;shape=process;whiteSpace=wrap;rounded=1;size=0.14;arcSize=6;strokeColor=#D0CEE2;fontColor=#1A1A1A;fillColor=#FAD9D5;align=center;fontSize=10;container=0;textShadow=1;shadow=1;glass=0;" parent="1" vertex="1">
          <mxGeometry x="-480" y="-600" width="100" height="50" as="geometry" />
        </mxCell>
        <mxCell id="1BU2WoQlICU336hxP3sF-63" style="edgeStyle=orthogonalEdgeStyle;rounded=0;orthogonalLoop=1;jettySize=auto;html=1;strokeColor=#09555B;fontColor=#1A1A1A;textShadow=1;" parent="1" source="mhCDdlAzMROOvfOSb-IU-62" edge="1">
          <mxGeometry relative="1" as="geometry">
            <mxPoint x="-30" y="-575" as="targetPoint" />
          </mxGeometry>
        </mxCell>
        <mxCell id="mhCDdlAzMROOvfOSb-IU-62" value="generate logs" style="whiteSpace=wrap;html=1;verticalAlign=middle;fillColor=#FAD9D5;strokeColor=#D0CEE2;fontColor=#1A1A1A;rounded=1;arcSize=6;fontSize=10;container=0;textShadow=1;" parent="1" vertex="1">
          <mxGeometry x="-300" y="-600" width="120" height="50" as="geometry" />
        </mxCell>
        <mxCell id="mhCDdlAzMROOvfOSb-IU-70" value="" style="edgeStyle=orthogonalEdgeStyle;rounded=0;orthogonalLoop=1;jettySize=auto;html=1;strokeColor=#09555B;fontColor=#1A1A1A;fontSize=10;textShadow=1;" parent="1" source="mhCDdlAzMROOvfOSb-IU-64" target="mhCDdlAzMROOvfOSb-IU-69" edge="1">
          <mxGeometry relative="1" as="geometry" />
        </mxCell>
        <mxCell id="mhCDdlAzMROOvfOSb-IU-90" value="Yes" style="edgeLabel;html=1;align=center;verticalAlign=middle;resizable=0;points=[];strokeColor=#D0CEE2;fontColor=#1A1A1A;fillColor=#FAD9D5;fontSize=10;container=0;textShadow=1;" parent="mhCDdlAzMROOvfOSb-IU-70" vertex="1" connectable="0">
          <mxGeometry relative="1" as="geometry">
            <mxPoint as="offset" />
          </mxGeometry>
        </mxCell>
        <mxCell id="mhCDdlAzMROOvfOSb-IU-91" style="edgeStyle=orthogonalEdgeStyle;rounded=0;orthogonalLoop=1;jettySize=auto;html=1;entryX=0.5;entryY=0;entryDx=0;entryDy=0;strokeColor=#09555B;fontColor=#1A1A1A;fontSize=10;textShadow=1;" parent="1" source="mhCDdlAzMROOvfOSb-IU-64" target="mhCDdlAzMROOvfOSb-IU-89" edge="1">
          <mxGeometry relative="1" as="geometry" />
        </mxCell>
        <mxCell id="mhCDdlAzMROOvfOSb-IU-92" value="No" style="edgeLabel;html=1;align=center;verticalAlign=middle;resizable=0;points=[];strokeColor=#D0CEE2;fontColor=#1A1A1A;fillColor=#FAD9D5;fontSize=10;container=0;textShadow=1;" parent="mhCDdlAzMROOvfOSb-IU-91" vertex="1" connectable="0">
          <mxGeometry relative="1" as="geometry">
            <mxPoint as="offset" />
          </mxGeometry>
        </mxCell>
        <mxCell id="mhCDdlAzMROOvfOSb-IU-64" value="archived button clicked?" style="rhombus;whiteSpace=wrap;html=1;fontSize=10;fillColor=#FAD9D5;strokeColor=#D0CEE2;fontColor=#1A1A1A;rounded=0;container=0;textShadow=1;" parent="1" vertex="1">
          <mxGeometry x="-800" y="-500" width="80" height="70" as="geometry" />
        </mxCell>
        <mxCell id="mhCDdlAzMROOvfOSb-IU-72" value="" style="edgeStyle=orthogonalEdgeStyle;rounded=0;orthogonalLoop=1;jettySize=auto;html=1;strokeColor=#09555B;fontColor=#1A1A1A;fontSize=10;textShadow=1;" parent="1" source="mhCDdlAzMROOvfOSb-IU-69" target="mhCDdlAzMROOvfOSb-IU-71" edge="1">
          <mxGeometry relative="1" as="geometry" />
        </mxCell>
        <mxCell id="mhCDdlAzMROOvfOSb-IU-69" value="is archived items not empty?" style="rhombus;whiteSpace=wrap;html=1;fontSize=10;fillColor=#FAD9D5;strokeColor=#D0CEE2;fontColor=#1A1A1A;rounded=0;container=0;textShadow=1;" parent="1" vertex="1">
          <mxGeometry x="-640" y="-500" width="80" height="70" as="geometry" />
        </mxCell>
        <mxCell id="mhCDdlAzMROOvfOSb-IU-74" value="" style="edgeStyle=orthogonalEdgeStyle;rounded=0;orthogonalLoop=1;jettySize=auto;html=1;strokeColor=#09555B;fontColor=#1A1A1A;entryX=0;entryY=0.5;entryDx=0;entryDy=0;fontSize=10;textShadow=1;" parent="1" source="mhCDdlAzMROOvfOSb-IU-71" target="mhCDdlAzMROOvfOSb-IU-85" edge="1">
          <mxGeometry relative="1" as="geometry">
            <mxPoint x="-333.00045979082336" y="-439.85549519859353" as="targetPoint" />
          </mxGeometry>
        </mxCell>
        <mxCell id="mhCDdlAzMROOvfOSb-IU-71" value="display archive items" style="whiteSpace=wrap;html=1;fontSize=10;fillColor=#FAD9D5;strokeColor=#D0CEE2;fontColor=#1A1A1A;rounded=0;container=0;textShadow=1;" parent="1" vertex="1">
          <mxGeometry x="-490" y="-490" width="120" height="50" as="geometry" />
        </mxCell>
        <mxCell id="1BU2WoQlICU336hxP3sF-59" style="edgeStyle=orthogonalEdgeStyle;rounded=0;orthogonalLoop=1;jettySize=auto;html=1;strokeColor=#09555B;fontColor=#1A1A1A;entryX=0.5;entryY=-0.011;entryDx=0;entryDy=0;exitX=1;exitY=0.5;exitDx=0;exitDy=0;textShadow=1;entryPerimeter=0;" parent="1" source="mhCDdlAzMROOvfOSb-IU-83" edge="1" target="6BP1Io6Df0ANF7hkN_Xt-1">
          <mxGeometry relative="1" as="geometry">
            <mxPoint x="-342.0004504073372" y="-1122.1413891452062" as="sourcePoint" />
            <mxPoint x="-31.61458687325353" y="-54.593329184890536" as="targetPoint" />
            <Array as="points">
              <mxPoint x="-340" y="-1010" />
              <mxPoint x="-30" y="-1010" />
            </Array>
          </mxGeometry>
        </mxCell>
        <mxCell id="mhCDdlAzMROOvfOSb-IU-83" value="search&amp;nbsp;predefined process" style="verticalLabelPosition=bottom;verticalAlign=top;html=1;shape=process;whiteSpace=wrap;rounded=1;size=0.14;arcSize=6;strokeColor=#D0CEE2;fontColor=#1A1A1A;fillColor=#FAD9D5;fontSize=10;container=0;textShadow=1;shadow=1;gradientColor=none;" parent="1" vertex="1">
          <mxGeometry x="-440" y="-1040" width="100" height="50" as="geometry" />
        </mxCell>
        <mxCell id="mhCDdlAzMROOvfOSb-IU-88" value="" style="edgeStyle=orthogonalEdgeStyle;rounded=0;orthogonalLoop=1;jettySize=auto;html=1;strokeColor=#09555B;fontColor=#1A1A1A;entryX=-0.026;entryY=0.487;entryDx=0;entryDy=0;entryPerimeter=0;fontSize=10;textShadow=1;" parent="1" source="mhCDdlAzMROOvfOSb-IU-85" target="mhCDdlAzMROOvfOSb-IU-86" edge="1">
          <mxGeometry relative="1" as="geometry">
            <mxPoint x="-183.00060054311632" y="-439.85549519859353" as="targetPoint" />
          </mxGeometry>
        </mxCell>
        <mxCell id="mhCDdlAzMROOvfOSb-IU-85" value="search&amp;nbsp;predefined process" style="verticalLabelPosition=bottom;verticalAlign=top;html=1;shape=process;whiteSpace=wrap;rounded=1;size=0.14;arcSize=6;strokeColor=#D0CEE2;fontColor=#1A1A1A;fillColor=#FAD9D5;fontSize=10;container=0;textShadow=1;" parent="1" vertex="1">
          <mxGeometry x="-320" y="-490" width="100" height="50" as="geometry" />
        </mxCell>
        <mxCell id="1BU2WoQlICU336hxP3sF-64" style="edgeStyle=orthogonalEdgeStyle;rounded=0;orthogonalLoop=1;jettySize=auto;html=1;strokeColor=#09555B;fontColor=#1A1A1A;textShadow=1;" parent="1" source="mhCDdlAzMROOvfOSb-IU-86" edge="1">
          <mxGeometry relative="1" as="geometry">
            <mxPoint x="-30" y="-465" as="targetPoint" />
          </mxGeometry>
        </mxCell>
        <mxCell id="mhCDdlAzMROOvfOSb-IU-86" value="restore &amp;amp; discontinue predefined process" style="verticalLabelPosition=bottom;verticalAlign=top;html=1;shape=process;whiteSpace=wrap;rounded=1;size=0.14;arcSize=6;strokeColor=#D0CEE2;fontColor=#1A1A1A;fillColor=#FAD9D5;fontSize=10;container=0;textShadow=1;" parent="1" vertex="1">
          <mxGeometry x="-170" y="-490" width="100" height="50" as="geometry" />
        </mxCell>
        <mxCell id="1BU2WoQlICU336hxP3sF-2" style="edgeStyle=orthogonalEdgeStyle;rounded=0;orthogonalLoop=1;jettySize=auto;html=1;entryX=0.5;entryY=0;entryDx=0;entryDy=0;strokeColor=#09555B;fontColor=#1A1A1A;textShadow=1;" parent="1" source="mhCDdlAzMROOvfOSb-IU-89" target="mhCDdlAzMROOvfOSb-IU-93" edge="1">
          <mxGeometry relative="1" as="geometry" />
        </mxCell>
        <mxCell id="1BU2WoQlICU336hxP3sF-1" style="edgeStyle=orthogonalEdgeStyle;rounded=0;orthogonalLoop=1;jettySize=auto;html=1;entryX=0.5;entryY=0;entryDx=0;entryDy=0;strokeColor=#09555B;fontColor=#1A1A1A;textShadow=1;" parent="1" source="mhCDdlAzMROOvfOSb-IU-93" target="mhCDdlAzMROOvfOSb-IU-94" edge="1">
          <mxGeometry relative="1" as="geometry" />
        </mxCell>
        <mxCell id="1BU2WoQlICU336hxP3sF-53" style="edgeStyle=orthogonalEdgeStyle;rounded=0;orthogonalLoop=1;jettySize=auto;html=1;entryX=0;entryY=0.5;entryDx=0;entryDy=0;strokeColor=#09555B;fontColor=#1A1A1A;textShadow=1;" parent="1" source="mhCDdlAzMROOvfOSb-IU-93" target="1BU2WoQlICU336hxP3sF-48" edge="1">
          <mxGeometry relative="1" as="geometry" />
        </mxCell>
        <mxCell id="mhCDdlAzMROOvfOSb-IU-93" value="logs button clicked?" style="rhombus;whiteSpace=wrap;html=1;fontSize=10;fillColor=#FAD9D5;strokeColor=#D0CEE2;fontColor=#1A1A1A;rounded=0;container=0;textShadow=1;" parent="1" vertex="1">
          <mxGeometry x="-800" y="-170" width="80" height="70" as="geometry" />
        </mxCell>
        <mxCell id="1BU2WoQlICU336hxP3sF-68" style="edgeStyle=orthogonalEdgeStyle;rounded=0;orthogonalLoop=1;jettySize=auto;html=1;entryX=0;entryY=0.5;entryDx=0;entryDy=0;strokeColor=#09555B;fontColor=#1A1A1A;textShadow=1;" parent="1" source="mhCDdlAzMROOvfOSb-IU-94" target="6BP1Io6Df0ANF7hkN_Xt-1" edge="1">
          <mxGeometry relative="1" as="geometry" />
        </mxCell>
        <mxCell id="mhCDdlAzMROOvfOSb-IU-94" value="Logout button clicked?" style="rhombus;whiteSpace=wrap;html=1;fontSize=10;fillColor=#FAD9D5;strokeColor=#D0CEE2;fontColor=#1A1A1A;rounded=0;container=0;textShadow=1;" parent="1" vertex="1">
          <mxGeometry x="-800" y="-50" width="80" height="50" as="geometry" />
        </mxCell>
        <mxCell id="6BP1Io6Df0ANF7hkN_Xt-1" value="A" style="ellipse;whiteSpace=wrap;html=1;labelBackgroundColor=none;rounded=1;fontStyle=0;fillColor=#FAD9D5;strokeColor=#D0CEE2;fontColor=#1A1A1A;rotation=0;fontSize=10;container=0;textShadow=1;" parent="1" vertex="1">
          <mxGeometry x="-60" y="-50" width="60" height="50" as="geometry" />
        </mxCell>
        <mxCell id="1BU2WoQlICU336hxP3sF-65" style="edgeStyle=orthogonalEdgeStyle;rounded=0;orthogonalLoop=1;jettySize=auto;html=1;strokeColor=#09555B;fontColor=#1A1A1A;textShadow=1;" parent="1" edge="1">
          <mxGeometry relative="1" as="geometry">
            <mxPoint x="-33" y="-317.07574867880214" as="targetPoint" />
            <mxPoint x="-76.00070376146437" y="-317.5440399295362" as="sourcePoint" />
          </mxGeometry>
        </mxCell>
        <mxCell id="1BU2WoQlICU336hxP3sF-23" value="display error message" style="whiteSpace=wrap;html=1;fontSize=10;fillColor=#FAD9D5;strokeColor=#D0CEE2;fontColor=#1A1A1A;rounded=1;arcSize=6;container=0;textShadow=1;" parent="1" vertex="1">
          <mxGeometry x="-290" y="-220" width="90" height="50" as="geometry" />
        </mxCell>
        <mxCell id="1BU2WoQlICU336hxP3sF-51" value="" style="edgeStyle=orthogonalEdgeStyle;rounded=0;orthogonalLoop=1;jettySize=auto;html=1;strokeColor=#09555B;fontColor=#1A1A1A;textShadow=1;" parent="1" source="1BU2WoQlICU336hxP3sF-48" target="1BU2WoQlICU336hxP3sF-50" edge="1">
          <mxGeometry relative="1" as="geometry" />
        </mxCell>
        <mxCell id="1BU2WoQlICU336hxP3sF-48" value="display all activity logs" style="whiteSpace=wrap;html=1;fontSize=10;fillColor=#FAD9D5;strokeColor=#D0CEE2;fontColor=#1A1A1A;rounded=0;container=0;textShadow=1;" parent="1" vertex="1">
          <mxGeometry x="-660" y="-160" width="100" height="50" as="geometry" />
        </mxCell>
        <mxCell id="1BU2WoQlICU336hxP3sF-52" style="edgeStyle=orthogonalEdgeStyle;rounded=0;orthogonalLoop=1;jettySize=auto;html=1;entryX=0.5;entryY=1;entryDx=0;entryDy=0;strokeColor=#09555B;fontColor=#1A1A1A;textShadow=1;" parent="1" source="1BU2WoQlICU336hxP3sF-50" target="1BU2WoQlICU336hxP3sF-48" edge="1">
          <mxGeometry relative="1" as="geometry">
            <Array as="points">
              <mxPoint x="-470" y="-90" />
              <mxPoint x="-610" y="-90" />
            </Array>
          </mxGeometry>
        </mxCell>
        <mxCell id="1BU2WoQlICU336hxP3sF-55" value="" style="edgeStyle=orthogonalEdgeStyle;rounded=0;orthogonalLoop=1;jettySize=auto;html=1;strokeColor=#09555B;fontColor=#1A1A1A;textShadow=1;" parent="1" source="1BU2WoQlICU336hxP3sF-50" target="1BU2WoQlICU336hxP3sF-54" edge="1">
          <mxGeometry relative="1" as="geometry" />
        </mxCell>
        <mxCell id="1BU2WoQlICU336hxP3sF-50" value="user select print logs?" style="rhombus;whiteSpace=wrap;html=1;fontSize=10;fillColor=#FAD9D5;strokeColor=#D0CEE2;fontColor=#1A1A1A;rounded=0;container=0;textShadow=1;" parent="1" vertex="1">
          <mxGeometry x="-510" y="-170" width="80" height="70" as="geometry" />
        </mxCell>
        <mxCell id="1BU2WoQlICU336hxP3sF-67" style="edgeStyle=orthogonalEdgeStyle;rounded=0;orthogonalLoop=1;jettySize=auto;html=1;strokeColor=#09555B;fontColor=#1A1A1A;textShadow=1;" parent="1" source="1BU2WoQlICU336hxP3sF-54" edge="1">
          <mxGeometry relative="1" as="geometry">
            <mxPoint x="-30" y="-135" as="targetPoint" />
          </mxGeometry>
        </mxCell>
        <mxCell id="1BU2WoQlICU336hxP3sF-54" value="print logs" style="whiteSpace=wrap;html=1;fontSize=10;fillColor=#FAD9D5;strokeColor=#D0CEE2;fontColor=#1A1A1A;rounded=0;container=0;textShadow=1;" parent="1" vertex="1">
          <mxGeometry x="-400" y="-160" width="100" height="50" as="geometry" />
        </mxCell>
        <mxCell id="mhCDdlAzMROOvfOSb-IU-89" value="accounts button clicked?" style="rhombus;whiteSpace=wrap;html=1;fontSize=10;fillColor=#FAD9D5;strokeColor=#D0CEE2;fontColor=#1A1A1A;rounded=0;container=0;textShadow=1;shadow=1;" parent="1" vertex="1">
          <mxGeometry x="-800" y="-350" width="80" height="70" as="geometry" />
        </mxCell>
        <mxCell id="1BU2WoQlICU336hxP3sF-3" value="search&amp;nbsp;predefined process" style="verticalLabelPosition=bottom;verticalAlign=top;html=1;shape=process;whiteSpace=wrap;rounded=1;size=0.14;arcSize=6;strokeColor=#D0CEE2;fontColor=#1A1A1A;fillColor=#FAD9D5;fontSize=10;container=0;textShadow=1;" parent="1" vertex="1">
          <mxGeometry x="-550" y="-340" width="100" height="50" as="geometry" />
        </mxCell>
        <mxCell id="1BU2WoQlICU336hxP3sF-6" style="edgeStyle=orthogonalEdgeStyle;rounded=0;orthogonalLoop=1;jettySize=auto;html=1;entryX=0;entryY=0.5;entryDx=0;entryDy=0;strokeColor=#09555B;fontColor=#1A1A1A;textShadow=1;" parent="1" source="1BU2WoQlICU336hxP3sF-4" target="1BU2WoQlICU336hxP3sF-3" edge="1">
          <mxGeometry relative="1" as="geometry" />
        </mxCell>
        <mxCell id="1BU2WoQlICU336hxP3sF-43" style="edgeStyle=orthogonalEdgeStyle;rounded=0;orthogonalLoop=1;jettySize=auto;html=1;entryX=0.014;entryY=0.502;entryDx=0;entryDy=0;strokeColor=#09555B;fontColor=#1A1A1A;textShadow=1;entryPerimeter=0;" parent="1" source="1BU2WoQlICU336hxP3sF-4" target="1BU2WoQlICU336hxP3sF-17" edge="1">
          <mxGeometry relative="1" as="geometry">
            <Array as="points">
              <mxPoint x="-630" y="-365" />
              <mxPoint x="-430" y="-365" />
            </Array>
          </mxGeometry>
        </mxCell>
        <mxCell id="bCgJ04W-Q28lRNQCcOh4-1" style="edgeStyle=orthogonalEdgeStyle;rounded=0;orthogonalLoop=1;jettySize=auto;html=1;entryX=0;entryY=0.5;entryDx=0;entryDy=0;strokeColor=#09555B;fontColor=#1A1A1A;" edge="1" parent="1" source="1BU2WoQlICU336hxP3sF-4" target="1BU2WoQlICU336hxP3sF-7">
          <mxGeometry relative="1" as="geometry">
            <Array as="points">
              <mxPoint x="-630" y="-245" />
            </Array>
          </mxGeometry>
        </mxCell>
        <mxCell id="1BU2WoQlICU336hxP3sF-4" value="display accounts" style="whiteSpace=wrap;html=1;fontSize=10;fillColor=#FAD9D5;strokeColor=#D0CEE2;fontColor=#1A1A1A;rounded=0;container=0;textShadow=1;" parent="1" vertex="1">
          <mxGeometry x="-680" y="-340" width="100" height="50" as="geometry" />
        </mxCell>
        <mxCell id="1BU2WoQlICU336hxP3sF-13" value="" style="edgeStyle=orthogonalEdgeStyle;rounded=0;orthogonalLoop=1;jettySize=auto;html=1;strokeColor=#09555B;fontColor=#1A1A1A;textShadow=1;" parent="1" source="1BU2WoQlICU336hxP3sF-7" target="1BU2WoQlICU336hxP3sF-12" edge="1">
          <mxGeometry relative="1" as="geometry" />
        </mxCell>
        <mxCell id="1BU2WoQlICU336hxP3sF-14" value="Yes" style="edgeLabel;html=1;align=center;verticalAlign=middle;resizable=0;points=[];strokeColor=#D0CEE2;fontColor=#1A1A1A;fillColor=#FAD9D5;container=0;textShadow=1;" parent="1BU2WoQlICU336hxP3sF-13" vertex="1" connectable="0">
          <mxGeometry relative="1" as="geometry">
            <mxPoint as="offset" />
          </mxGeometry>
        </mxCell>
        <mxCell id="1BU2WoQlICU336hxP3sF-36" style="edgeStyle=orthogonalEdgeStyle;rounded=0;orthogonalLoop=1;jettySize=auto;html=1;entryX=0.5;entryY=1;entryDx=0;entryDy=0;strokeColor=#09555B;fontColor=#1A1A1A;textShadow=1;" parent="1" source="1BU2WoQlICU336hxP3sF-7" target="1BU2WoQlICU336hxP3sF-17" edge="1">
          <mxGeometry relative="1" as="geometry" />
        </mxCell>
        <mxCell id="1BU2WoQlICU336hxP3sF-37" value="No" style="edgeLabel;html=1;align=center;verticalAlign=middle;resizable=0;points=[];strokeColor=#D0CEE2;fontColor=#1A1A1A;fillColor=#FAD9D5;container=0;textShadow=1;" parent="1BU2WoQlICU336hxP3sF-36" vertex="1" connectable="0">
          <mxGeometry relative="1" as="geometry">
            <mxPoint as="offset" />
          </mxGeometry>
        </mxCell>
        <mxCell id="1BU2WoQlICU336hxP3sF-7" value="decline button clicked?" style="rhombus;whiteSpace=wrap;html=1;fontSize=10;verticalAlign=middle;fillColor=#FAD9D5;strokeColor=#D0CEE2;fontColor=#1A1A1A;rounded=1;arcSize=6;container=0;textShadow=1;" parent="1" vertex="1">
          <mxGeometry x="-420" y="-280" width="80" height="70" as="geometry" />
        </mxCell>
        <mxCell id="1BU2WoQlICU336hxP3sF-16" value="" style="edgeStyle=orthogonalEdgeStyle;rounded=0;orthogonalLoop=1;jettySize=auto;html=1;strokeColor=#09555B;fontColor=#1A1A1A;textShadow=1;" parent="1" source="1BU2WoQlICU336hxP3sF-12" target="1BU2WoQlICU336hxP3sF-15" edge="1">
          <mxGeometry relative="1" as="geometry" />
        </mxCell>
        <mxCell id="1BU2WoQlICU336hxP3sF-47" value="Yes" style="edgeLabel;html=1;align=center;verticalAlign=middle;resizable=0;points=[];strokeColor=#D0CEE2;fontColor=#1A1A1A;fillColor=#FAD9D5;container=0;textShadow=1;" parent="1BU2WoQlICU336hxP3sF-16" vertex="1" connectable="0">
          <mxGeometry relative="1" as="geometry">
            <mxPoint as="offset" />
          </mxGeometry>
        </mxCell>
        <mxCell id="1BU2WoQlICU336hxP3sF-12" value="user already select item?" style="rhombus;whiteSpace=wrap;html=1;fontSize=10;fillColor=#FAD9D5;strokeColor=#D0CEE2;fontColor=#1A1A1A;rounded=1;arcSize=6;container=0;textShadow=1;" parent="1" vertex="1">
          <mxGeometry x="-280" y="-350" width="80" height="70" as="geometry" />
        </mxCell>
        <mxCell id="1BU2WoQlICU336hxP3sF-15" value="update selected account status" style="whiteSpace=wrap;html=1;fontSize=10;fillColor=#FAD9D5;strokeColor=#D0CEE2;fontColor=#1A1A1A;rounded=1;arcSize=6;container=0;textShadow=1;" parent="1" vertex="1">
          <mxGeometry x="-160" y="-340" width="100" height="50" as="geometry" />
        </mxCell>
        <mxCell id="1BU2WoQlICU336hxP3sF-38" style="edgeStyle=orthogonalEdgeStyle;rounded=0;orthogonalLoop=1;jettySize=auto;html=1;entryX=0.5;entryY=0;entryDx=0;entryDy=0;strokeColor=#09555B;fontColor=#1A1A1A;textShadow=1;" parent="1" source="1BU2WoQlICU336hxP3sF-17" target="1BU2WoQlICU336hxP3sF-12" edge="1">
          <mxGeometry relative="1" as="geometry">
            <Array as="points">
              <mxPoint x="-240" y="-365" />
            </Array>
          </mxGeometry>
        </mxCell>
        <mxCell id="1BU2WoQlICU336hxP3sF-39" value="Yes" style="edgeLabel;html=1;align=center;verticalAlign=middle;resizable=0;points=[];strokeColor=#D0CEE2;fontColor=#1A1A1A;fillColor=#FAD9D5;container=0;textShadow=1;" parent="1BU2WoQlICU336hxP3sF-38" vertex="1" connectable="0">
          <mxGeometry relative="1" as="geometry">
            <mxPoint as="offset" />
          </mxGeometry>
        </mxCell>
        <mxCell id="1BU2WoQlICU336hxP3sF-17" value="accept button clicked?" style="rhombus;whiteSpace=wrap;html=1;fontSize=10;fillColor=#FAD9D5;strokeColor=#D0CEE2;fontColor=#1A1A1A;rounded=1;arcSize=6;container=0;textShadow=1;" parent="1" vertex="1">
          <mxGeometry x="-420" y="-400" width="80" height="70" as="geometry" />
        </mxCell>
        <mxCell id="1BU2WoQlICU336hxP3sF-46" style="edgeStyle=orthogonalEdgeStyle;rounded=0;orthogonalLoop=1;jettySize=auto;html=1;strokeColor=#09555B;fontColor=#1A1A1A;textShadow=1;entryX=0.25;entryY=1;entryDx=0;entryDy=0;" parent="1" source="1BU2WoQlICU336hxP3sF-23" edge="1" target="1BU2WoQlICU336hxP3sF-4">
          <mxGeometry relative="1" as="geometry">
            <mxPoint x="-633.0001782862377" y="-291.5515767043479" as="targetPoint" />
          </mxGeometry>
        </mxCell>
        <mxCell id="1BU2WoQlICU336hxP3sF-40" style="edgeStyle=orthogonalEdgeStyle;rounded=0;orthogonalLoop=1;jettySize=auto;html=1;entryX=0.495;entryY=0.045;entryDx=0;entryDy=0;entryPerimeter=0;strokeColor=#09555B;fontColor=#1A1A1A;textShadow=1;" parent="1" source="1BU2WoQlICU336hxP3sF-12" target="1BU2WoQlICU336hxP3sF-23" edge="1">
          <mxGeometry relative="1" as="geometry" />
        </mxCell>
        <mxCell id="1BU2WoQlICU336hxP3sF-41" value="No" style="edgeLabel;html=1;align=center;verticalAlign=middle;resizable=0;points=[];strokeColor=#D0CEE2;fontColor=#1A1A1A;fillColor=#FAD9D5;container=0;textShadow=1;" parent="1BU2WoQlICU336hxP3sF-40" vertex="1" connectable="0">
          <mxGeometry relative="1" as="geometry">
            <mxPoint as="offset" />
          </mxGeometry>
        </mxCell>
        <mxCell id="1BU2WoQlICU336hxP3sF-5" style="edgeStyle=orthogonalEdgeStyle;rounded=0;orthogonalLoop=1;jettySize=auto;html=1;entryX=-0.022;entryY=0.506;entryDx=0;entryDy=0;entryPerimeter=0;strokeColor=#09555B;fontColor=#1A1A1A;textShadow=1;" parent="1" source="mhCDdlAzMROOvfOSb-IU-89" target="1BU2WoQlICU336hxP3sF-4" edge="1">
          <mxGeometry relative="1" as="geometry" />
        </mxCell>
      </root>
    </mxGraphModel>
  </diagram>
  <diagram id="RdV66r1VwqvlbLfg9gsu" name="staff-page">
    <mxGraphModel dx="3363" dy="2803" grid="1" gridSize="10" guides="1" tooltips="1" connect="1" arrows="1" fold="1" page="1" pageScale="1" pageWidth="1169" pageHeight="827" math="0" shadow="0">
      <root>
        <mxCell id="0" />
        <mxCell id="1" parent="0" />
        <mxCell id="9tYY9ylNYD1fsGY_am5B-14" value="" style="group" vertex="1" connectable="0" parent="1">
          <mxGeometry x="-1160" y="-1640" width="1150" height="800" as="geometry" />
        </mxCell>
        <mxCell id="SgbQjgcmASLbesfe5kiY-107" style="edgeStyle=orthogonalEdgeStyle;rounded=0;orthogonalLoop=1;jettySize=auto;html=1;entryX=0;entryY=0.5;entryDx=0;entryDy=0;labelBackgroundColor=none;strokeColor=#09555B;fontColor=default;" edge="1" parent="9tYY9ylNYD1fsGY_am5B-14" source="SgbQjgcmASLbesfe5kiY-57" target="SgbQjgcmASLbesfe5kiY-106">
          <mxGeometry relative="1" as="geometry" />
        </mxCell>
        <mxCell id="SgbQjgcmASLbesfe5kiY-57" value="display manage dashboard" style="whiteSpace=wrap;html=1;fontSize=10;fillColor=#FAD9D5;strokeColor=#D0CEE2;fontColor=#1A1A1A;rounded=0;container=0;labelBackgroundColor=none;" vertex="1" parent="9tYY9ylNYD1fsGY_am5B-14">
          <mxGeometry x="162.11448039995187" y="439.43566284573575" width="121.58590308370046" height="67.60581321642455" as="geometry" />
        </mxCell>
        <mxCell id="SgbQjgcmASLbesfe5kiY-58" value="" style="edgeStyle=orthogonalEdgeStyle;rounded=0;orthogonalLoop=1;jettySize=auto;html=1;labelBackgroundColor=none;strokeColor=#09555B;fontColor=default;" edge="1" parent="9tYY9ylNYD1fsGY_am5B-14" source="SgbQjgcmASLbesfe5kiY-52" target="SgbQjgcmASLbesfe5kiY-57">
          <mxGeometry relative="1" as="geometry" />
        </mxCell>
        <mxCell id="SgbQjgcmASLbesfe5kiY-111" value="Yes" style="edgeLabel;html=1;align=center;verticalAlign=middle;resizable=0;points=[];labelBackgroundColor=none;fontColor=#1A1A1A;" vertex="1" connectable="0" parent="SgbQjgcmASLbesfe5kiY-58">
          <mxGeometry x="0.0667" y="-2" relative="1" as="geometry">
            <mxPoint as="offset" />
          </mxGeometry>
        </mxCell>
        <mxCell id="414hNM0v1XL0dtD_MV6h-2" style="edgeStyle=orthogonalEdgeStyle;rounded=0;orthogonalLoop=1;jettySize=auto;html=1;labelBackgroundColor=none;strokeColor=#09555B;fontColor=default;" edge="1" parent="9tYY9ylNYD1fsGY_am5B-14" source="0Ota3UbLrew88AocNuaz-1">
          <mxGeometry relative="1" as="geometry">
            <mxPoint x="60.79289449686815" y="123.94399089677835" as="targetPoint" />
          </mxGeometry>
        </mxCell>
        <mxCell id="0Ota3UbLrew88AocNuaz-1" value="staff" style="verticalLabelPosition=bottom;verticalAlign=top;html=1;shape=offPageConnector;rounded=0;size=0.5;strokeColor=#D0CEE2;fontColor=#1A1A1A;fillColor=#FAD9D5;fontSize=10;container=0;labelBackgroundColor=none;" parent="9tYY9ylNYD1fsGY_am5B-14" vertex="1">
          <mxGeometry x="30.396447248434075" y="11.26763553607076" width="60.792894496868094" height="58.65777696438368" as="geometry" />
        </mxCell>
        <mxCell id="IFpo_o99kexj8Kiu76_H-3" value="" style="edgeStyle=orthogonalEdgeStyle;rounded=0;orthogonalLoop=1;jettySize=auto;html=1;labelBackgroundColor=none;strokeColor=#09555B;fontColor=default;" edge="1" parent="9tYY9ylNYD1fsGY_am5B-14" source="414hNM0v1XL0dtD_MV6h-1" target="IFpo_o99kexj8Kiu76_H-2">
          <mxGeometry relative="1" as="geometry" />
        </mxCell>
        <mxCell id="SgbQjgcmASLbesfe5kiY-3" value="" style="edgeStyle=orthogonalEdgeStyle;rounded=0;orthogonalLoop=1;jettySize=auto;html=1;labelBackgroundColor=none;strokeColor=#09555B;fontColor=default;" edge="1" parent="9tYY9ylNYD1fsGY_am5B-14" source="414hNM0v1XL0dtD_MV6h-1" target="SgbQjgcmASLbesfe5kiY-2">
          <mxGeometry relative="1" as="geometry" />
        </mxCell>
        <mxCell id="414hNM0v1XL0dtD_MV6h-1" value="display staff dashboard" style="whiteSpace=wrap;html=1;verticalAlign=middle;fillColor=#FAD9D5;strokeColor=#D0CEE2;fontColor=#1A1A1A;rounded=0;fontSize=10;container=0;labelBackgroundColor=none;" vertex="1" parent="9tYY9ylNYD1fsGY_am5B-14">
          <mxGeometry y="123.94416829035545" width="121.58578899373619" height="58.65777696438368" as="geometry" />
        </mxCell>
        <mxCell id="9tYY9ylNYD1fsGY_am5B-2" style="edgeStyle=orthogonalEdgeStyle;rounded=0;orthogonalLoop=1;jettySize=auto;html=1;entryX=0.5;entryY=0;entryDx=0;entryDy=0;labelBackgroundColor=none;strokeColor=#09555B;fontColor=default;" edge="1" parent="9tYY9ylNYD1fsGY_am5B-14" source="IFpo_o99kexj8Kiu76_H-1" target="9tYY9ylNYD1fsGY_am5B-1">
          <mxGeometry relative="1" as="geometry" />
        </mxCell>
        <mxCell id="IFpo_o99kexj8Kiu76_H-1" value="search&amp;nbsp;predefined process" style="verticalLabelPosition=bottom;verticalAlign=top;html=1;shape=process;whiteSpace=wrap;rounded=1;size=0.14;arcSize=6;strokeColor=#D0CEE2;fontColor=#1A1A1A;fillColor=#FAD9D5;fontSize=10;container=0;labelBackgroundColor=none;" vertex="1" parent="9tYY9ylNYD1fsGY_am5B-14">
          <mxGeometry x="162.11417616004707" y="272.74456317970584" width="101.32149082811348" height="58.65777696438368" as="geometry" />
        </mxCell>
        <mxCell id="SgbQjgcmASLbesfe5kiY-1" style="edgeStyle=orthogonalEdgeStyle;rounded=0;orthogonalLoop=1;jettySize=auto;html=1;entryX=0;entryY=0.5;entryDx=0;entryDy=0;labelBackgroundColor=none;strokeColor=#09555B;fontColor=default;" edge="1" parent="9tYY9ylNYD1fsGY_am5B-14" source="IFpo_o99kexj8Kiu76_H-2" target="IFpo_o99kexj8Kiu76_H-1">
          <mxGeometry relative="1" as="geometry" />
        </mxCell>
        <mxCell id="SgbQjgcmASLbesfe5kiY-56" value="Yes" style="edgeLabel;html=1;align=center;verticalAlign=middle;resizable=0;points=[];container=0;labelBackgroundColor=none;fontColor=#1A1A1A;" vertex="1" connectable="0" parent="SgbQjgcmASLbesfe5kiY-1">
          <mxGeometry x="-0.1277" y="-1" relative="1" as="geometry">
            <mxPoint as="offset" />
          </mxGeometry>
        </mxCell>
        <mxCell id="IFpo_o99kexj8Kiu76_H-2" value="user clicked search?" style="rhombus;whiteSpace=wrap;html=1;fontSize=10;fillColor=#FAD9D5;strokeColor=#D0CEE2;fontColor=#1A1A1A;rounded=0;container=0;labelBackgroundColor=none;" vertex="1" parent="9tYY9ylNYD1fsGY_am5B-14">
          <mxGeometry x="20.264260135634665" y="257.001375881214" width="81.05726872246697" height="90.14108428856608" as="geometry" />
        </mxCell>
        <mxCell id="SgbQjgcmASLbesfe5kiY-5" value="" style="edgeStyle=orthogonalEdgeStyle;rounded=0;orthogonalLoop=1;jettySize=auto;html=1;labelBackgroundColor=none;strokeColor=#09555B;fontColor=default;" edge="1" parent="9tYY9ylNYD1fsGY_am5B-14" source="SgbQjgcmASLbesfe5kiY-2" target="SgbQjgcmASLbesfe5kiY-4">
          <mxGeometry relative="1" as="geometry" />
        </mxCell>
        <mxCell id="SgbQjgcmASLbesfe5kiY-2" value="display items" style="whiteSpace=wrap;html=1;fontSize=10;fillColor=#FAD9D5;strokeColor=#D0CEE2;fontColor=#1A1A1A;rounded=0;container=0;labelBackgroundColor=none;" vertex="1" parent="9tYY9ylNYD1fsGY_am5B-14">
          <mxGeometry x="172.24652490029584" y="119.47015016433501" width="121.58590308370046" height="67.60581321642455" as="geometry" />
        </mxCell>
        <mxCell id="SgbQjgcmASLbesfe5kiY-7" value="" style="edgeStyle=orthogonalEdgeStyle;rounded=0;orthogonalLoop=1;jettySize=auto;html=1;labelBackgroundColor=none;strokeColor=#09555B;fontColor=default;" edge="1" parent="9tYY9ylNYD1fsGY_am5B-14" source="SgbQjgcmASLbesfe5kiY-4" target="SgbQjgcmASLbesfe5kiY-6">
          <mxGeometry relative="1" as="geometry" />
        </mxCell>
        <mxCell id="SgbQjgcmASLbesfe5kiY-11" value="Yes" style="edgeLabel;html=1;align=center;verticalAlign=middle;resizable=0;points=[];container=0;labelBackgroundColor=none;fontColor=#1A1A1A;" vertex="1" connectable="0" parent="SgbQjgcmASLbesfe5kiY-7">
          <mxGeometry x="-0.2524" y="2" relative="1" as="geometry">
            <mxPoint y="2" as="offset" />
          </mxGeometry>
        </mxCell>
        <mxCell id="SgbQjgcmASLbesfe5kiY-25" style="edgeStyle=orthogonalEdgeStyle;rounded=0;orthogonalLoop=1;jettySize=auto;html=1;exitX=0.5;exitY=0;exitDx=0;exitDy=0;labelBackgroundColor=none;strokeColor=#09555B;fontColor=default;" edge="1" parent="9tYY9ylNYD1fsGY_am5B-14" source="SgbQjgcmASLbesfe5kiY-4">
          <mxGeometry relative="1" as="geometry">
            <mxPoint x="364.75770925110135" y="45.07054214428304" as="targetPoint" />
            <mxPoint x="385.0220264317181" y="110.45623204894291" as="sourcePoint" />
          </mxGeometry>
        </mxCell>
        <mxCell id="SgbQjgcmASLbesfe5kiY-120" value="No" style="edgeLabel;html=1;align=center;verticalAlign=middle;resizable=0;points=[];labelBackgroundColor=none;fontColor=#1A1A1A;" vertex="1" connectable="0" parent="SgbQjgcmASLbesfe5kiY-25">
          <mxGeometry x="-0.0352" y="-2" relative="1" as="geometry">
            <mxPoint as="offset" />
          </mxGeometry>
        </mxCell>
        <mxCell id="SgbQjgcmASLbesfe5kiY-4" value="buy now button clicked?" style="rhombus;whiteSpace=wrap;html=1;fontSize=10;fillColor=#FAD9D5;strokeColor=#D0CEE2;fontColor=#1A1A1A;rounded=0;container=0;labelBackgroundColor=none;" vertex="1" parent="9tYY9ylNYD1fsGY_am5B-14">
          <mxGeometry x="324.2289037549214" y="108.20251462826425" width="81.05726872246697" height="90.14108428856608" as="geometry" />
        </mxCell>
        <mxCell id="SgbQjgcmASLbesfe5kiY-9" value="" style="edgeStyle=orthogonalEdgeStyle;rounded=0;orthogonalLoop=1;jettySize=auto;html=1;labelBackgroundColor=none;strokeColor=#09555B;fontColor=default;" edge="1" parent="9tYY9ylNYD1fsGY_am5B-14" source="SgbQjgcmASLbesfe5kiY-6" target="SgbQjgcmASLbesfe5kiY-8">
          <mxGeometry relative="1" as="geometry" />
        </mxCell>
        <mxCell id="SgbQjgcmASLbesfe5kiY-10" value="Yes" style="edgeLabel;html=1;align=center;verticalAlign=middle;resizable=0;points=[];container=0;labelBackgroundColor=none;fontColor=#1A1A1A;" vertex="1" connectable="0" parent="SgbQjgcmASLbesfe5kiY-9">
          <mxGeometry x="0.0095" relative="1" as="geometry">
            <mxPoint as="offset" />
          </mxGeometry>
        </mxCell>
        <mxCell id="SgbQjgcmASLbesfe5kiY-20" style="edgeStyle=orthogonalEdgeStyle;rounded=0;orthogonalLoop=1;jettySize=auto;html=1;entryX=0.5;entryY=1;entryDx=0;entryDy=0;labelBackgroundColor=none;strokeColor=#09555B;fontColor=default;" edge="1" parent="9tYY9ylNYD1fsGY_am5B-14" source="SgbQjgcmASLbesfe5kiY-6" target="SgbQjgcmASLbesfe5kiY-19">
          <mxGeometry relative="1" as="geometry" />
        </mxCell>
        <mxCell id="SgbQjgcmASLbesfe5kiY-28" value="No" style="edgeLabel;html=1;align=center;verticalAlign=middle;resizable=0;points=[];container=0;labelBackgroundColor=none;fontColor=#1A1A1A;" vertex="1" connectable="0" parent="SgbQjgcmASLbesfe5kiY-20">
          <mxGeometry x="-0.4645" y="-1" relative="1" as="geometry">
            <mxPoint as="offset" />
          </mxGeometry>
        </mxCell>
        <mxCell id="SgbQjgcmASLbesfe5kiY-6" value="user already selected and item?" style="rhombus;whiteSpace=wrap;html=1;fontSize=10;fillColor=#FAD9D5;strokeColor=#D0CEE2;fontColor=#1A1A1A;rounded=0;container=0;labelBackgroundColor=none;" vertex="1" parent="9tYY9ylNYD1fsGY_am5B-14">
          <mxGeometry x="445.81480683862185" y="108.20251462826425" width="81.05726872246697" height="90.14108428856608" as="geometry" />
        </mxCell>
        <mxCell id="SgbQjgcmASLbesfe5kiY-21" style="edgeStyle=orthogonalEdgeStyle;rounded=0;orthogonalLoop=1;jettySize=auto;html=1;entryX=1;entryY=0.5;entryDx=0;entryDy=0;exitX=0.502;exitY=-0.015;exitDx=0;exitDy=0;exitPerimeter=0;labelBackgroundColor=none;strokeColor=#09555B;fontColor=default;" edge="1" parent="9tYY9ylNYD1fsGY_am5B-14" source="SgbQjgcmASLbesfe5kiY-8" target="SgbQjgcmASLbesfe5kiY-19">
          <mxGeometry relative="1" as="geometry">
            <mxPoint x="607.9295154185023" y="101.40871982463683" as="sourcePoint" />
            <Array as="points">
              <mxPoint x="607.9295154185023" y="47.324069251497185" />
            </Array>
          </mxGeometry>
        </mxCell>
        <mxCell id="SgbQjgcmASLbesfe5kiY-29" value="No" style="edgeLabel;html=1;align=center;verticalAlign=middle;resizable=0;points=[];container=0;labelBackgroundColor=none;fontColor=#1A1A1A;" vertex="1" connectable="0" parent="SgbQjgcmASLbesfe5kiY-21">
          <mxGeometry x="-0.6061" y="-2" relative="1" as="geometry">
            <mxPoint x="-2" y="-11" as="offset" />
          </mxGeometry>
        </mxCell>
        <mxCell id="SgbQjgcmASLbesfe5kiY-38" style="edgeStyle=orthogonalEdgeStyle;rounded=0;orthogonalLoop=1;jettySize=auto;html=1;entryX=0;entryY=0.5;entryDx=0;entryDy=0;labelBackgroundColor=none;strokeColor=#09555B;fontColor=default;" edge="1" parent="9tYY9ylNYD1fsGY_am5B-14" source="SgbQjgcmASLbesfe5kiY-8" target="SgbQjgcmASLbesfe5kiY-31">
          <mxGeometry relative="1" as="geometry" />
        </mxCell>
        <mxCell id="SgbQjgcmASLbesfe5kiY-8" value="valid quantity?" style="rhombus;whiteSpace=wrap;html=1;fontSize=10;fillColor=#FAD9D5;strokeColor=#D0CEE2;fontColor=#1A1A1A;rounded=0;container=0;labelBackgroundColor=none;" vertex="1" parent="9tYY9ylNYD1fsGY_am5B-14">
          <mxGeometry x="567.4007099223223" y="109.32927818187133" width="81.05726872246697" height="90.14108428856608" as="geometry" />
        </mxCell>
        <mxCell id="SgbQjgcmASLbesfe5kiY-23" style="edgeStyle=orthogonalEdgeStyle;rounded=0;orthogonalLoop=1;jettySize=auto;html=1;entryX=0.5;entryY=0;entryDx=0;entryDy=0;labelBackgroundColor=none;strokeColor=#09555B;fontColor=default;" edge="1" parent="9tYY9ylNYD1fsGY_am5B-14" source="SgbQjgcmASLbesfe5kiY-19" target="SgbQjgcmASLbesfe5kiY-2">
          <mxGeometry relative="1" as="geometry" />
        </mxCell>
        <mxCell id="SgbQjgcmASLbesfe5kiY-19" value="display error message" style="whiteSpace=wrap;html=1;fontSize=10;fillColor=#FAD9D5;strokeColor=#D0CEE2;fontColor=#1A1A1A;rounded=0;container=0;labelBackgroundColor=none;" vertex="1" parent="9tYY9ylNYD1fsGY_am5B-14">
          <mxGeometry x="440.74889867841415" y="24.856403992572034" width="91.18942731277534" height="45.07054214428304" as="geometry" />
        </mxCell>
        <mxCell id="9tYY9ylNYD1fsGY_am5B-13" style="edgeStyle=orthogonalEdgeStyle;rounded=0;orthogonalLoop=1;jettySize=auto;html=1;entryX=0;entryY=0.5;entryDx=0;entryDy=0;strokeColor=#09555B;fontColor=#1A1A1A;" edge="1" parent="9tYY9ylNYD1fsGY_am5B-14" source="SgbQjgcmASLbesfe5kiY-31" target="SgbQjgcmASLbesfe5kiY-33">
          <mxGeometry relative="1" as="geometry" />
        </mxCell>
        <mxCell id="SgbQjgcmASLbesfe5kiY-31" value="input cash" style="shape=parallelogram;perimeter=parallelogramPerimeter;whiteSpace=wrap;html=1;fixedSize=1;fillStyle=auto;fillColor=#FAD9D5;strokeColor=#D0CEE2;container=0;labelBackgroundColor=none;fontColor=#1A1A1A;" vertex="1" parent="9tYY9ylNYD1fsGY_am5B-14">
          <mxGeometry x="678.8546255506609" y="129.60034393588586" width="91.18942731277534" height="49.58886399424741" as="geometry" />
        </mxCell>
        <mxCell id="SgbQjgcmASLbesfe5kiY-35" value="" style="edgeStyle=orthogonalEdgeStyle;rounded=0;orthogonalLoop=1;jettySize=auto;html=1;labelBackgroundColor=none;strokeColor=#09555B;fontColor=default;" edge="1" parent="9tYY9ylNYD1fsGY_am5B-14" source="SgbQjgcmASLbesfe5kiY-33" target="SgbQjgcmASLbesfe5kiY-34">
          <mxGeometry relative="1" as="geometry" />
        </mxCell>
        <mxCell id="SgbQjgcmASLbesfe5kiY-37" value="Yes" style="edgeLabel;html=1;align=center;verticalAlign=middle;resizable=0;points=[];container=0;labelBackgroundColor=none;fontColor=#1A1A1A;" vertex="1" connectable="0" parent="SgbQjgcmASLbesfe5kiY-35">
          <mxGeometry x="-0.1083" y="1" relative="1" as="geometry">
            <mxPoint as="offset" />
          </mxGeometry>
        </mxCell>
        <mxCell id="SgbQjgcmASLbesfe5kiY-40" style="edgeStyle=orthogonalEdgeStyle;rounded=0;orthogonalLoop=1;jettySize=auto;html=1;entryX=0.5;entryY=0;entryDx=0;entryDy=0;labelBackgroundColor=none;strokeColor=#09555B;fontColor=default;" edge="1" parent="9tYY9ylNYD1fsGY_am5B-14" source="SgbQjgcmASLbesfe5kiY-33" target="SgbQjgcmASLbesfe5kiY-39">
          <mxGeometry relative="1" as="geometry" />
        </mxCell>
        <mxCell id="SgbQjgcmASLbesfe5kiY-41" value="No" style="edgeLabel;html=1;align=center;verticalAlign=middle;resizable=0;points=[];container=0;labelBackgroundColor=none;fontColor=#1A1A1A;" vertex="1" connectable="0" parent="SgbQjgcmASLbesfe5kiY-40">
          <mxGeometry x="-0.6814" y="1" relative="1" as="geometry">
            <mxPoint as="offset" />
          </mxGeometry>
        </mxCell>
        <mxCell id="SgbQjgcmASLbesfe5kiY-33" value="input cash is greater than item price?" style="rhombus;whiteSpace=wrap;html=1;fontSize=10;fillColor=#FAD9D5;strokeColor=#D0CEE2;fontColor=#1A1A1A;rounded=0;container=0;labelBackgroundColor=none;" vertex="1" parent="9tYY9ylNYD1fsGY_am5B-14">
          <mxGeometry x="790.3081989091065" y="109.32927818187133" width="81.05726872246697" height="90.14108428856608" as="geometry" />
        </mxCell>
        <mxCell id="SgbQjgcmASLbesfe5kiY-34" value="display change" style="whiteSpace=wrap;html=1;fontSize=10;fillColor=#FAD9D5;strokeColor=#D0CEE2;fontColor=#1A1A1A;rounded=0;container=0;labelBackgroundColor=none;" vertex="1" parent="9tYY9ylNYD1fsGY_am5B-14">
          <mxGeometry x="911.8941019928069" y="120.59691371794209" width="121.58590308370046" height="67.60581321642455" as="geometry" />
        </mxCell>
        <mxCell id="SgbQjgcmASLbesfe5kiY-42" style="edgeStyle=orthogonalEdgeStyle;rounded=0;orthogonalLoop=1;jettySize=auto;html=1;entryX=0.5;entryY=1;entryDx=0;entryDy=0;labelBackgroundColor=none;strokeColor=#09555B;fontColor=default;" edge="1" parent="9tYY9ylNYD1fsGY_am5B-14" source="SgbQjgcmASLbesfe5kiY-39" target="SgbQjgcmASLbesfe5kiY-31">
          <mxGeometry relative="1" as="geometry">
            <Array as="points">
              <mxPoint x="724.4493392070485" y="265.9161986512699" />
            </Array>
          </mxGeometry>
        </mxCell>
        <mxCell id="SgbQjgcmASLbesfe5kiY-39" value="display insufficient cash error" style="whiteSpace=wrap;html=1;fontSize=10;fillColor=#FAD9D5;strokeColor=#D0CEE2;fontColor=#1A1A1A;rounded=0;container=0;labelBackgroundColor=none;" vertex="1" parent="9tYY9ylNYD1fsGY_am5B-14">
          <mxGeometry x="770.0440528634361" y="237.74710981109303" width="121.58590308370046" height="56.338177680353795" as="geometry" />
        </mxCell>
        <mxCell id="SgbQjgcmASLbesfe5kiY-46" style="edgeStyle=orthogonalEdgeStyle;rounded=0;orthogonalLoop=1;jettySize=auto;html=1;entryX=0.5;entryY=0;entryDx=0;entryDy=0;exitX=0.5;exitY=0;exitDx=0;exitDy=0;labelBackgroundColor=none;strokeColor=#09555B;fontColor=default;" edge="1" parent="9tYY9ylNYD1fsGY_am5B-14" source="SgbQjgcmASLbesfe5kiY-43" target="SgbQjgcmASLbesfe5kiY-2">
          <mxGeometry relative="1" as="geometry">
            <mxPoint x="1195.5947136563877" y="101.40871982463683" as="sourcePoint" />
            <Array as="points">
              <mxPoint x="1104.4052863436125" />
              <mxPoint x="233.03964757709252" />
            </Array>
          </mxGeometry>
        </mxCell>
        <mxCell id="SgbQjgcmASLbesfe5kiY-47" value="No" style="edgeLabel;html=1;align=center;verticalAlign=middle;resizable=0;points=[];container=0;labelBackgroundColor=none;fontColor=#1A1A1A;" vertex="1" connectable="0" parent="SgbQjgcmASLbesfe5kiY-46">
          <mxGeometry x="-0.9216" y="1" relative="1" as="geometry">
            <mxPoint as="offset" />
          </mxGeometry>
        </mxCell>
        <mxCell id="9tYY9ylNYD1fsGY_am5B-7" style="edgeStyle=orthogonalEdgeStyle;rounded=0;orthogonalLoop=1;jettySize=auto;html=1;entryX=0.5;entryY=0;entryDx=0;entryDy=0;labelBackgroundColor=none;strokeColor=#09555B;fontColor=default;" edge="1" parent="9tYY9ylNYD1fsGY_am5B-14" source="SgbQjgcmASLbesfe5kiY-43" target="SgbQjgcmASLbesfe5kiY-48">
          <mxGeometry relative="1" as="geometry" />
        </mxCell>
        <mxCell id="9tYY9ylNYD1fsGY_am5B-8" value="Yes" style="edgeLabel;html=1;align=center;verticalAlign=middle;resizable=0;points=[];labelBackgroundColor=none;fontColor=#1A1A1A;" vertex="1" connectable="0" parent="9tYY9ylNYD1fsGY_am5B-7">
          <mxGeometry x="-0.1422" y="1" relative="1" as="geometry">
            <mxPoint as="offset" />
          </mxGeometry>
        </mxCell>
        <mxCell id="SgbQjgcmASLbesfe5kiY-43" value="print receipt?" style="rhombus;whiteSpace=wrap;html=1;fontSize=10;fillColor=#FAD9D5;strokeColor=#D0CEE2;fontColor=#1A1A1A;rounded=0;container=0;labelBackgroundColor=none;" vertex="1" parent="9tYY9ylNYD1fsGY_am5B-14">
          <mxGeometry x="1063.8764808474325" y="110.45604173547841" width="81.05726872246697" height="90.14108428856608" as="geometry" />
        </mxCell>
        <mxCell id="SgbQjgcmASLbesfe5kiY-45" style="edgeStyle=orthogonalEdgeStyle;rounded=0;orthogonalLoop=1;jettySize=auto;html=1;entryX=-0.037;entryY=0.487;entryDx=0;entryDy=0;entryPerimeter=0;labelBackgroundColor=none;strokeColor=#09555B;fontColor=default;" edge="1" parent="9tYY9ylNYD1fsGY_am5B-14" source="SgbQjgcmASLbesfe5kiY-34" target="SgbQjgcmASLbesfe5kiY-43">
          <mxGeometry relative="1" as="geometry" />
        </mxCell>
        <mxCell id="9tYY9ylNYD1fsGY_am5B-9" style="edgeStyle=orthogonalEdgeStyle;rounded=0;orthogonalLoop=1;jettySize=auto;html=1;entryX=0.5;entryY=0;entryDx=0;entryDy=0;labelBackgroundColor=none;strokeColor=#09555B;fontColor=default;" edge="1" parent="9tYY9ylNYD1fsGY_am5B-14" source="SgbQjgcmASLbesfe5kiY-48" target="SgbQjgcmASLbesfe5kiY-115">
          <mxGeometry relative="1" as="geometry" />
        </mxCell>
        <mxCell id="SgbQjgcmASLbesfe5kiY-48" value="print receipt" style="whiteSpace=wrap;html=1;fontSize=10;fillColor=#FAD9D5;strokeColor=#D0CEE2;fontColor=#1A1A1A;rounded=0;container=0;labelBackgroundColor=none;" vertex="1" parent="9tYY9ylNYD1fsGY_am5B-14">
          <mxGeometry x="1058.8105726872247" y="257.00349894223785" width="91.18942731277534" height="37.14939436242529" as="geometry" />
        </mxCell>
        <mxCell id="SgbQjgcmASLbesfe5kiY-52" value="user clicked manage button?" style="rhombus;whiteSpace=wrap;html=1;fontSize=10;fillColor=#FAD9D5;strokeColor=#D0CEE2;fontColor=#1A1A1A;rounded=0;container=0;labelBackgroundColor=none;" vertex="1" parent="9tYY9ylNYD1fsGY_am5B-14">
          <mxGeometry x="20.264260135634665" y="428.168027309665" width="81.05726872246697" height="90.14108428856608" as="geometry" />
        </mxCell>
        <mxCell id="SgbQjgcmASLbesfe5kiY-53" value="" style="edgeStyle=orthogonalEdgeStyle;rounded=0;orthogonalLoop=1;jettySize=auto;html=1;labelBackgroundColor=none;strokeColor=#09555B;fontColor=default;" edge="1" parent="9tYY9ylNYD1fsGY_am5B-14" source="IFpo_o99kexj8Kiu76_H-2" target="SgbQjgcmASLbesfe5kiY-52">
          <mxGeometry relative="1" as="geometry" />
        </mxCell>
        <mxCell id="SgbQjgcmASLbesfe5kiY-54" value="No" style="edgeLabel;html=1;align=center;verticalAlign=middle;resizable=0;points=[];container=0;labelBackgroundColor=none;fontColor=#1A1A1A;" vertex="1" connectable="0" parent="SgbQjgcmASLbesfe5kiY-53">
          <mxGeometry x="-0.0876" relative="1" as="geometry">
            <mxPoint as="offset" />
          </mxGeometry>
        </mxCell>
        <mxCell id="9tYY9ylNYD1fsGY_am5B-3" style="edgeStyle=orthogonalEdgeStyle;rounded=0;orthogonalLoop=1;jettySize=auto;html=1;labelBackgroundColor=none;strokeColor=#09555B;fontColor=default;" edge="1" parent="9tYY9ylNYD1fsGY_am5B-14" source="SgbQjgcmASLbesfe5kiY-106">
          <mxGeometry relative="1" as="geometry">
            <mxPoint x="688.986784140969" y="473.24010309034867" as="targetPoint" />
          </mxGeometry>
        </mxCell>
        <mxCell id="SgbQjgcmASLbesfe5kiY-106" value="manage predefined process" style="verticalLabelPosition=bottom;verticalAlign=top;html=1;shape=process;whiteSpace=wrap;rounded=1;size=0.14;arcSize=6;strokeColor=#D0CEE2;fontColor=#1A1A1A;fillColor=#FAD9D5;fontSize=10;container=0;labelBackgroundColor=none;" vertex="1" parent="9tYY9ylNYD1fsGY_am5B-14">
          <mxGeometry x="334.36087219528935" y="443.91121460815685" width="101.32149082811348" height="58.65777696438368" as="geometry" />
        </mxCell>
        <mxCell id="SgbQjgcmASLbesfe5kiY-113" style="edgeStyle=orthogonalEdgeStyle;rounded=0;orthogonalLoop=1;jettySize=auto;html=1;entryX=0;entryY=0.5;entryDx=0;entryDy=0;labelBackgroundColor=none;strokeColor=#09555B;fontColor=default;" edge="1" parent="9tYY9ylNYD1fsGY_am5B-14" source="SgbQjgcmASLbesfe5kiY-108" target="SgbQjgcmASLbesfe5kiY-109">
          <mxGeometry relative="1" as="geometry" />
        </mxCell>
        <mxCell id="SgbQjgcmASLbesfe5kiY-114" value="Yes" style="edgeLabel;html=1;align=center;verticalAlign=middle;resizable=0;points=[];labelBackgroundColor=none;fontColor=#1A1A1A;" vertex="1" connectable="0" parent="SgbQjgcmASLbesfe5kiY-113">
          <mxGeometry x="-0.1537" relative="1" as="geometry">
            <mxPoint as="offset" />
          </mxGeometry>
        </mxCell>
        <mxCell id="SgbQjgcmASLbesfe5kiY-125" style="edgeStyle=orthogonalEdgeStyle;rounded=0;orthogonalLoop=1;jettySize=auto;html=1;entryX=0.5;entryY=0;entryDx=0;entryDy=0;labelBackgroundColor=none;strokeColor=#09555B;fontColor=default;" edge="1" parent="9tYY9ylNYD1fsGY_am5B-14" source="SgbQjgcmASLbesfe5kiY-108" target="SgbQjgcmASLbesfe5kiY-123">
          <mxGeometry relative="1" as="geometry" />
        </mxCell>
        <mxCell id="SgbQjgcmASLbesfe5kiY-126" value="No" style="edgeLabel;html=1;align=center;verticalAlign=middle;resizable=0;points=[];labelBackgroundColor=none;fontColor=#1A1A1A;" vertex="1" connectable="0" parent="SgbQjgcmASLbesfe5kiY-125">
          <mxGeometry x="-0.1425" y="-1" relative="1" as="geometry">
            <mxPoint as="offset" />
          </mxGeometry>
        </mxCell>
        <mxCell id="SgbQjgcmASLbesfe5kiY-108" value="user archived d items button?" style="rhombus;whiteSpace=wrap;html=1;fontSize=10;fillColor=#FAD9D5;strokeColor=#D0CEE2;fontColor=#1A1A1A;rounded=0;container=0;labelBackgroundColor=none;" vertex="1" parent="9tYY9ylNYD1fsGY_am5B-14">
          <mxGeometry x="20.264260135634665" y="574.6472892785848" width="81.05726872246697" height="90.14108428856608" as="geometry" />
        </mxCell>
        <mxCell id="SgbQjgcmASLbesfe5kiY-122" style="edgeStyle=orthogonalEdgeStyle;rounded=0;orthogonalLoop=1;jettySize=auto;html=1;entryX=0;entryY=0.5;entryDx=0;entryDy=0;labelBackgroundColor=none;strokeColor=#09555B;fontColor=default;" edge="1" parent="9tYY9ylNYD1fsGY_am5B-14" source="SgbQjgcmASLbesfe5kiY-109" target="SgbQjgcmASLbesfe5kiY-121">
          <mxGeometry relative="1" as="geometry" />
        </mxCell>
        <mxCell id="SgbQjgcmASLbesfe5kiY-109" value="display archived items dashboard" style="whiteSpace=wrap;html=1;fontSize=10;fillColor=#FAD9D5;strokeColor=#D0CEE2;fontColor=#1A1A1A;rounded=0;container=0;labelBackgroundColor=none;" vertex="1" parent="9tYY9ylNYD1fsGY_am5B-14">
          <mxGeometry x="172.24663899026024" y="585.9149248146556" width="121.58590308370046" height="67.60581321642455" as="geometry" />
        </mxCell>
        <mxCell id="SgbQjgcmASLbesfe5kiY-110" style="edgeStyle=orthogonalEdgeStyle;rounded=0;orthogonalLoop=1;jettySize=auto;html=1;entryX=0.501;entryY=0.042;entryDx=0;entryDy=0;entryPerimeter=0;labelBackgroundColor=none;strokeColor=#09555B;fontColor=default;" edge="1" parent="9tYY9ylNYD1fsGY_am5B-14" source="SgbQjgcmASLbesfe5kiY-52" target="SgbQjgcmASLbesfe5kiY-108">
          <mxGeometry relative="1" as="geometry" />
        </mxCell>
        <mxCell id="SgbQjgcmASLbesfe5kiY-112" value="No" style="edgeLabel;html=1;align=center;verticalAlign=middle;resizable=0;points=[];labelBackgroundColor=none;fontColor=#1A1A1A;" vertex="1" connectable="0" parent="SgbQjgcmASLbesfe5kiY-110">
          <mxGeometry x="-0.061" y="1" relative="1" as="geometry">
            <mxPoint as="offset" />
          </mxGeometry>
        </mxCell>
        <mxCell id="9tYY9ylNYD1fsGY_am5B-10" style="edgeStyle=orthogonalEdgeStyle;rounded=0;orthogonalLoop=1;jettySize=auto;html=1;entryX=0.5;entryY=0;entryDx=0;entryDy=0;labelBackgroundColor=none;strokeColor=#09555B;fontColor=default;" edge="1" parent="9tYY9ylNYD1fsGY_am5B-14" source="SgbQjgcmASLbesfe5kiY-115" target="SgbQjgcmASLbesfe5kiY-118">
          <mxGeometry relative="1" as="geometry" />
        </mxCell>
        <mxCell id="SgbQjgcmASLbesfe5kiY-115" value="update item total sold" style="whiteSpace=wrap;html=1;fontSize=10;fillColor=#FAD9D5;strokeColor=#D0CEE2;fontColor=#1A1A1A;rounded=0;container=0;labelBackgroundColor=none;" vertex="1" parent="9tYY9ylNYD1fsGY_am5B-14">
          <mxGeometry x="1058.8105726872247" y="331.40369638691305" width="91.18942731277534" height="37.14939436242529" as="geometry" />
        </mxCell>
        <mxCell id="SgbQjgcmASLbesfe5kiY-118" value="generate logs" style="whiteSpace=wrap;html=1;fontSize=10;fillColor=#FAD9D5;strokeColor=#D0CEE2;fontColor=#1A1A1A;rounded=0;container=0;labelBackgroundColor=none;" vertex="1" parent="9tYY9ylNYD1fsGY_am5B-14">
          <mxGeometry x="1058.8105726872247" y="402.2883915443343" width="91.18942731277534" height="37.14939436242529" as="geometry" />
        </mxCell>
        <mxCell id="9tYY9ylNYD1fsGY_am5B-4" style="edgeStyle=orthogonalEdgeStyle;rounded=0;orthogonalLoop=1;jettySize=auto;html=1;labelBackgroundColor=none;strokeColor=#09555B;fontColor=default;" edge="1" parent="9tYY9ylNYD1fsGY_am5B-14" source="SgbQjgcmASLbesfe5kiY-121">
          <mxGeometry relative="1" as="geometry">
            <mxPoint x="688.9867841409692" y="619.7199544838918" as="targetPoint" />
          </mxGeometry>
        </mxCell>
        <mxCell id="SgbQjgcmASLbesfe5kiY-121" value="archived items predefined process" style="verticalLabelPosition=bottom;verticalAlign=top;html=1;shape=process;whiteSpace=wrap;rounded=1;size=0.14;arcSize=6;strokeColor=#D0CEE2;fontColor=#1A1A1A;fillColor=#FAD9D5;fontSize=10;container=0;labelBackgroundColor=none;" vertex="1" parent="9tYY9ylNYD1fsGY_am5B-14">
          <mxGeometry x="344.49303078559774" y="590.3904765770767" width="101.32149082811348" height="58.65777696438368" as="geometry" />
        </mxCell>
        <mxCell id="SgbQjgcmASLbesfe5kiY-127" style="edgeStyle=orthogonalEdgeStyle;rounded=0;orthogonalLoop=1;jettySize=auto;html=1;entryX=0;entryY=0.5;entryDx=0;entryDy=0;labelBackgroundColor=none;strokeColor=#09555B;fontColor=default;" edge="1" parent="9tYY9ylNYD1fsGY_am5B-14" source="SgbQjgcmASLbesfe5kiY-123" target="SgbQjgcmASLbesfe5kiY-124">
          <mxGeometry relative="1" as="geometry" />
        </mxCell>
        <mxCell id="SgbQjgcmASLbesfe5kiY-128" value="Yes" style="edgeLabel;html=1;align=center;verticalAlign=middle;resizable=0;points=[];labelBackgroundColor=none;fontColor=#1A1A1A;" vertex="1" connectable="0" parent="SgbQjgcmASLbesfe5kiY-127">
          <mxGeometry x="-0.1574" y="2" relative="1" as="geometry">
            <mxPoint as="offset" />
          </mxGeometry>
        </mxCell>
        <mxCell id="SgbQjgcmASLbesfe5kiY-123" value="user clicked logout button?" style="rhombus;whiteSpace=wrap;html=1;fontSize=10;fillColor=#FAD9D5;strokeColor=#D0CEE2;fontColor=#1A1A1A;rounded=0;container=0;labelBackgroundColor=none;" vertex="1" parent="9tYY9ylNYD1fsGY_am5B-14">
          <mxGeometry x="20.264260135634665" y="709.858915711434" width="81.05726872246697" height="90.14108428856608" as="geometry" />
        </mxCell>
        <mxCell id="9tYY9ylNYD1fsGY_am5B-5" style="edgeStyle=orthogonalEdgeStyle;rounded=0;orthogonalLoop=1;jettySize=auto;html=1;entryX=0;entryY=0.5;entryDx=0;entryDy=0;labelBackgroundColor=none;strokeColor=#09555B;fontColor=default;" edge="1" parent="9tYY9ylNYD1fsGY_am5B-14" source="SgbQjgcmASLbesfe5kiY-124" target="9tYY9ylNYD1fsGY_am5B-1">
          <mxGeometry relative="1" as="geometry" />
        </mxCell>
        <mxCell id="SgbQjgcmASLbesfe5kiY-124" value="generate logs" style="whiteSpace=wrap;html=1;fontSize=10;fillColor=#FAD9D5;strokeColor=#D0CEE2;fontColor=#1A1A1A;rounded=0;container=0;labelBackgroundColor=none;" vertex="1" parent="9tYY9ylNYD1fsGY_am5B-14">
          <mxGeometry x="162.11453744493394" y="736.3512499177601" width="91.18942731277534" height="37.14939436242529" as="geometry" />
        </mxCell>
        <mxCell id="9tYY9ylNYD1fsGY_am5B-1" value="A" style="ellipse;whiteSpace=wrap;html=1;labelBackgroundColor=none;rounded=1;fontStyle=0;fillColor=#FAD9D5;strokeColor=#D0CEE2;fontColor=#1A1A1A;rotation=0;" vertex="1" parent="9tYY9ylNYD1fsGY_am5B-14">
          <mxGeometry x="658.5918671636734" y="719.4795482355751" width="61.572348356489336" height="70.89748202471489" as="geometry" />
        </mxCell>
        <mxCell id="9tYY9ylNYD1fsGY_am5B-11" style="edgeStyle=orthogonalEdgeStyle;rounded=0;orthogonalLoop=1;jettySize=auto;html=1;entryX=1.008;entryY=0.6;entryDx=0;entryDy=0;entryPerimeter=0;labelBackgroundColor=none;strokeColor=#09555B;fontColor=default;" edge="1" parent="9tYY9ylNYD1fsGY_am5B-14" source="SgbQjgcmASLbesfe5kiY-118" target="9tYY9ylNYD1fsGY_am5B-1">
          <mxGeometry relative="1" as="geometry">
            <Array as="points">
              <mxPoint x="1104.4052863436125" y="761.6921622383833" />
            </Array>
          </mxGeometry>
        </mxCell>
      </root>
    </mxGraphModel>
  </diagram>
  <diagram id="jJMcSrYDZtQJ6v--w3GP" name="predefined process">
    <mxGraphModel dx="1783" dy="934" grid="1" gridSize="10" guides="1" tooltips="1" connect="1" arrows="1" fold="1" page="1" pageScale="1" pageWidth="827" pageHeight="1169" math="0" shadow="0">
      <root>
        <mxCell id="0" />
        <mxCell id="1" parent="0" />
      </root>
    </mxGraphModel>
  </diagram>
</mxfile>
